<svg xmlns="http://www.w3.org/2000/svg" width="331" height="46" fill="none" viewBox="0 0 331 46">
  <g clip-path="url(#a)">
    <path fill="#94C9E1" fill-rule="evenodd" d="M1.53 0A1.53 1.53 0 0 0 0 1.52a42.72 42.72 0 0 0 39.89 41c1 .06 1.92 0 2.89 0A43.741 43.741 0 0 0 52 41.38a20.84 20.84 0 0 0 16.39-20.44c0-.7 0-1.38-.1-2.05a21 21 0 0 0-41.16-3.66A21.05 21.05 0 0 0 39 28.72a11.46 11.46 0 1 1 16.78 0 11.5 11.5 0 0 1-8.39 3.64 23 23 0 0 1-20.95-13.47 23.354 23.354 0 0 1-1.29-3.66 22.91 22.91 0 0 1 .66-13.53l.12-.33a.852.852 0 0 0 0-.23A1.14 1.14 0 0 0 24.81 0H1.54" clip-rule="evenodd"/>
    <path fill="#94C9E1" fill-rule="evenodd" d="M78.76 1.15A32.29 32.29 0 0 1 68.6 34a38.587 38.587 0 0 1-6.07 4.1c5.22-4.9 7.77-10.65 7.77-17.17a22.785 22.785 0 0 0-.72-5.71 23 23 0 0 0-.72-13.71 1 1 0 0 1-.07-.38A1.15 1.15 0 0 1 69.94 0h7.34a1.57 1.57 0 0 1 1.48 1.15Z" clip-rule="evenodd"/>
    <path fill="#94C9E1" d="m113.46 1.68-4 4.37h-5.28l-3.84-4.37V0h4.23L107 1.68 109.4 0h4.06v1.68ZM92.3 23c0 9.9 5.85 15.48 15 15.48 3.61.125 7.162-.928 10.12-3V30h-3a8.753 8.753 0 0 1-6.63 2.66c-4.58 0-7-3-7-9.94 0-6.46 2.75-9.56 7.37-9.56a8.17 8.17 0 0 1 5.72 2h3.22V9.37a17 17 0 0 0-9.1-2.18C98.58 7.19 92.3 13 92.3 23Zm34.41 1.24h7.15c-.13-3.53-1.31-4.66-3.4-4.66-1.78 0-3.31.91-3.75 4.66Zm0 4.1c.39 3.88 2.22 4.89 5.4 4.89a9.9 9.9 0 0 0 5.85-1.7h2.44v4.66a17.818 17.818 0 0 1-9.51 2.27c-8 0-12.12-4.45-12.12-11.69 0-7.24 4.79-12 11.73-12 7.16 0 10.82 3.8 10.82 11.56 0 .92-.09 1.75-.09 2l-14.52.01Zm16.56 8.25v-5.15h2.66a8.24 8.24 0 0 0 5.32 1.7c2.1 0 3.4-.48 3.4-1.66s-.78-1.61-4-2.05c-4.88-.61-7.63-2.31-7.63-7.11 0-5 3.93-7.5 9.69-7.5a16.843 16.843 0 0 1 7.76 1.53v5.06H158a9.13 9.13 0 0 0-5-1.41c-2.18 0-3 .57-3 1.66 0 1.09 1 1.44 3.93 1.79 5.37.65 7.94 2.26 7.94 7.15 0 4.89-3.23 7.81-10.25 7.81-2.874.1-5.726-.529-8.29-1.83m28.44-12.91 7.15-8.55h6.55V17l-6.33 7.2 7.2 12v1.87H179l-5.32-8.94-1.87 2v6.89h-7.86V7.58h5c2.4 0 2.88.61 2.88 4.1l-.06 11.99Zm23.9-10.03V12.2l1.44-4.75h7.54v1.87l-4.4 4.32h-4.58Zm4.67 14.88a15.285 15.285 0 0 0-2.58-.22c-2.09 0-3.4.83-3.4 2.74 0 1.91 1.22 2.8 2.92 2.8a4.83 4.83 0 0 0 3.06-1.27v-4.05Zm.43 7.41c-1.61 1.79-3.75 2.49-6.59 2.49-4.05 0-7.28-2.31-7.28-6.85 0-4.84 3.71-7.15 9-7.15a21.649 21.649 0 0 1 4.41.43v-1.57c0-2-1.05-2.92-3.89-2.92a9.78 9.78 0 0 0-5.42 1.53h-2.36v-5.28a23.396 23.396 0 0 1 9.36-1.83c6.84 0 10.2 2.27 10.2 7.93v15.4h-4.27c-1.83 0-2.7-.65-3.14-2.18m28.79-14.57v10.56a5.33 5.33 0 0 0 3.19.92c2.4 0 4.41-1.1 4.41-6.15 0-5.05-1.92-6.07-4.28-6.07-1.141.05-2.265.3-3.32.74Zm0 14.92v8.9h-7.85V15.12h5.46c1.18 0 1.87.44 2.18 2.49a9.834 9.834 0 0 1 7.06-2.83c4.37 0 8.69 2.83 8.69 11.21 0 8.77-4.8 11.9-9.9 11.9a8.85 8.85 0 0 1-5.64-1.61Zm33.81-9.47c0-4.58-1.75-6.67-4.28-6.67-2.53 0-4.32 2.09-4.32 6.67s1.75 6.51 4.32 6.51c2.57 0 4.28-2 4.28-6.51Zm-16.54-.08c0-7.37 5.32-12 12.26-12 6.94 0 12.21 4.59 12.21 12S266 38.46 259.11 38.46c-6.89 0-12.26-4.4-12.26-11.73Zm42-17.63-4 4.54h-5.28l-3.85-4.54V7.45H280l2.45 1.83 2.39-1.83h4.06l-.05 1.65ZM273 36.59v-5.15h2.66a8.2 8.2 0 0 0 5.32 1.7c2.09 0 3.4-.48 3.4-1.66s-.78-1.61-4-2.05c-4.89-.61-7.63-2.31-7.63-7.11 0-5 3.92-7.5 9.68-7.5a16.841 16.841 0 0 1 7.76 1.53v5.06h-2.48a9.088 9.088 0 0 0-5.06-1.4c-2.19 0-3 .57-3 1.66 0 1.09 1 1.44 3.93 1.79 5.36.65 7.93 2.26 7.93 7.15 0 4.89-3.23 7.81-10.25 7.81a16.929 16.929 0 0 1-8.26-1.83Zm19.55-21.47H295V9.28h7.85v5.84h4.28v5.07h-4.28v10.46c0 2.06.78 2.71 2.84 2.71h1.52v4.53a15.58 15.58 0 0 1-4.49.61c-4.71 0-7.72-1.65-7.72-6.67V20.19h-2.49l.04-5.07Zm29.7 17.45v-4.05a15.105 15.105 0 0 0-2.57-.22c-2.09 0-3.4.83-3.4 2.74 0 1.91 1.22 2.8 2.92 2.8a4.78 4.78 0 0 0 3.05-1.27Zm.44 3.36c-1.62 1.79-3.75 2.49-6.59 2.49-4.05 0-7.28-2.31-7.28-6.85 0-4.84 3.71-7.15 9-7.15a21.63 21.63 0 0 1 4.4.43v-1.57c0-2-1.05-2.92-3.88-2.92a9.78 9.78 0 0 0-5.45 1.53h-2.36v-5.28a23.4 23.4 0 0 1 9.34-1.83c6.85 0 10.2 2.27 10.2 7.93v15.4h-4.27c-1.83 0-2.71-.65-3.14-2.18"/>
  </g>
  <defs>
    <clipPath id="a">
      <path fill="#fff" d="M0 0h330.1v45.18H0z"/>
    </clipPath>
  </defs>
</svg>
