<?xml version="1.0" encoding="UTF-8"?>
<svg id="Vrstva_2" xmlns="http://www.w3.org/2000/svg" viewBox="0 0 1408 239.47">
  <defs>
    <style>
      .cls-1 {
        fill: #94c9e1;
      }
    </style>
  </defs>
  <g id="Vrstva_1-2" data-name="Vrstva_1">
    <g>
      <path class="cls-1" d="M35.7.14c-.4.4-.7,50.6-.7,111.6v110.8h-17.5c-10.6,0-17.5.4-17.5,1,0,2.3,4.7,3,19.4,3s15.8-.2,17.6-2c2-2,2-3.3,2-111.8,0-87.5-.3-110.2-1.3-111.6-.7-.9-1.6-1.4-2-1Z"/>
      <path class="cls-1" d="M85,108.54v79h4c3.2,0,4.6.6,6.5,2.7l2.3,2.8,29.9.3c31.7.4,43.9-.5,55.3-4,21.5-6.6,35.7-21.4,39-40.7.8-4.6,1-17.1.8-37.8-.4-30.1-.4-31-2.9-37.4-3.2-8.3-11.7-20.6-18.6-26.9-6.1-5.5-16.7-11.1-25.7-13.4-11.1-2.9-22-3.6-56.3-3.6h-34.3v79ZM167.5,66.14c3.5.9,7.2,2.6,8.8,4.2,5.2,5,5.9,10.1,5.5,40.9-.3,31.6-.6,32.5-9,39.7-6.8,5.8-14.2,7.6-31.9,7.6h-14.9v-43.3c.1-46.2.1-46.5,5.1-49.3,3.6-2,28.7-1.9,36.4.2Z"/>
      <path class="cls-1" d="M390,44.54v15h4c3.2,0,4.6.6,6.5,2.7,2.3,2.8,2.5,2.8,13.9,2.8,10.7,0,11.7-.2,13.8-2.3,2.1-2,2.3-3.2,2.3-11.3,0-8.7-.1-9.2-2.7-11.4-2.2-1.9-2.8-3.3-2.8-6.5v-4h-35v15Z"/>
      <path class="cls-1" d="M1294,108.54v79h4c3.2,0,4.6.6,6.5,2.7,2.3,2.7,2.6,2.8,13.2,2.8s11.2-.2,14.9-2.8c5.1-3.5,7-3.4,15.2.5,6.4,3.1,7.2,3.3,18.2,3.3,13.8-.1,20.1-2.1,27.9-9.1,10.1-9.1,14.1-21.9,14.1-46.1,0-15.6-1.4-26.5-4.5-33.7-2.7-6.4-11-18-16-22.4-7.7-6.7-13.9-8.7-28-8.7-11.9,0-12.1,0-18.7,3.6l-6.7,3.6-.3-19.4-.3-19.5-2.7-2.3c-2.2-1.9-2.8-3.3-2.8-6.5v-4h-34v79ZM1362.8,108.84c.7.6,2.1,2.4,3,4.1,2.1,4.1,2.9,24.9,1.2,33-2.2,10.6-10.4,16.5-21.6,15.3-6.9-.7-9.9-2.6-10.8-6.8-1.2-6-.6-31.2.8-35.2,2.2-6.2,6.7-9.9,14.1-11.8,3.6-.9,11.5-.1,13.3,1.4Z"/>
      <path class="cls-1" d="M462,58.04v16.5h-13v26h4.3c3.4.1,4.6.6,6.2,2.8,1.9,2.5,2,4.7,2.5,33.8l.5,31.1,3,5.9c2.5,4.8,4.3,6.8,10,10.7,9.6,6.6,12.5,7.6,24,8.9,15.5,1.8,18.8-.8,18.3-13.9-.3-5.8-.8-7.6-2.6-9.6-1.2-1.3-2.2-3.2-2.2-4.3,0-4.7-1.2-6.4-4.2-6.4-1.6,0-3.8-.5-4.9-1-1.8-1-1.9-2.3-1.9-22.8.1-16.3.4-22.3,1.4-24.1.8-1.4,3.8-3.6,6.7-5,3-1.5,6-3.7,6.7-5.1,2-3.9,1.1-13.5-1.6-16.3-1.2-1.3-2.2-3.2-2.2-4.3-.1-5.4-1-6.4-6-6.4h-4.8l-.4-9.9c-.2-8.5-.6-10.3-2.4-12.3-1.2-1.3-2.5-4.2-2.9-6.6l-.7-4.2h-33.8v16.5Z"/>
      <path class="cls-1" d="M286.5,75.04c-17.5,3.9-30,14.6-35.6,30.5-1.9,5.5-2.3,9.1-2.7,22.9-.6,23.5,1.9,33.2,11.2,43.8,3.9,4.5,14.7,12.3,22.1,16.1,17.7,9,47.3,8.4,66.5-1.3,6.6-3.3,7.9-5.2,7.7-10.8l-.2-4.7-10.8-8.2-10.7-8.1-6.8,3.1c-9.3,4.3-17.8,5.6-26,4.2-9.1-1.6-12.2-3.3-12.2-6.9,0-5.5.4-5.6,37-6.1,31.3-.5,33.9-.6,35.9-2.4,2.9-2.6,3.6-7.7,2.3-17.3-1.5-11.5-5-20.7-11.6-30.6-9.3-13.9-18.1-20.8-31.3-24.2-7.1-1.9-26.5-1.9-34.8,0ZM319.2,107.54c2.9.8,4.1,1.9,5.7,5.3,1.1,2.3,2.1,5.5,2.3,7.2l.3,3-14,.3c-7.7.2-16.8,0-20.2-.3l-6.2-.6,1-2.7c1.9-5.1,8.1-10.2,14.9-12.3,3.7-1.1,12-1,16.2.1Z"/>
      <path class="cls-1" d="M573.4,75.54c-13.6,3.5-23.1,10.2-29.1,20.1-5.2,8.7-6.3,15-6.3,34.9,0,24.4,2.3,32.9,11.2,42.6,4.4,4.8,14.3,12.1,21,15.5,11.2,5.7,33.1,7.8,48.4,4.6,14.6-3.1,27-11.9,32.4-23.1,4.2-8.7,5.3-17,4.8-36.4-.5-19.5-1.7-23.6-9.5-35.3-12.5-18.4-26.4-25-53-24.8-9.1,0-14.8.5-19.9,1.9ZM607,108.64c7.3,1.6,8.4,4,8.8,20.4.4,15.1-.5,20-4.9,25-5.6,6.3-19.5,8.3-27.8,4.1-4.3-2.3-5.4-7.2-4.9-22.6.3-11,.6-13,2.7-16.7,2.9-5,8-8.9,13.6-10.2,5.5-1.3,6.7-1.3,12.5,0Z"/>
      <path class="cls-1" d="M737,74.44c-3.9,1.2-9.2,4.1-13.1,7.3-4.8,3.9-6.9,3-6.9-2.8v-4.4h-34v113h4c3.2,0,4.6.6,6.5,2.7,2.3,2.7,2.6,2.8,13.4,2.8,16.8,0,15.5,3,16.1-37.8.5-30,.7-33.6,2.4-37,3.8-7.7,15.3-12,25.1-9.5,7.4,1.9,7.4,2,7.4,43.5l.1,35.3h4c3.2,0,4.6.6,6.5,2.7,2.3,2.7,2.6,2.8,13.4,2.8,10.2,0,11.2-.2,13.3-2.3l2.3-2.3v-37.7c0-36.6-.1-37.9-2.2-43.6-1.3-3.3-4.2-8.7-6.4-12-8.3-12.1-15-17.5-25.1-20.2-5.6-1.5-22.5-1.8-26.8-.5Z"/>
      <path class="cls-1" d="M855,75.04c-3.6.8-9.4,2.6-13,4-6.6,2.6-16.4,9-15.8,10.4.8,1.9,18.8,17.1,22.5,19,5.2,2.6,8.1,2.6,15.9.1,8.8-2.7,17.1-3.4,23.7-2,6.7,1.4,8.7,3.6,8.7,9.7v4.3h-17.7c-34,.1-47.4,3.9-55.2,15.6-8.1,12.2-5.8,33.8,4.6,43.6,4.3,4.1,13.3,9.8,18.6,11.9,11.2,4.4,28.9,4.2,44.4-.7l8.1-2.5,5.4,2.3c4.3,1.9,7.1,2.3,15,2.3,8.8,0,10-.2,12-2.3l2.3-2.3v-35.2c0-39.4-.4-42.6-6.3-52.7-8.3-14.1-19.4-22.4-34.1-25.5-9-1.9-30.2-1.9-39.1,0ZM897,153.44c0,6.9-5.9,10.2-20.5,11.5-7.3.7-17.4-.7-18.5-2.5-1-1.5-.1-5.1,1.9-7.7,2.9-3.9,8.4-5.1,23.4-5.2h13.7v3.9Z"/>
      <path class="cls-1" d="M1190.5,75.04c-17.5,3.9-30,14.6-35.6,30.5-1.9,5.5-2.3,9.1-2.7,22.9-.6,23.5,1.9,33.2,11.2,43.8,3.9,4.5,14.7,12.3,22.1,16.1,17.7,9,47.3,8.4,66.5-1.3,6.6-3.3,7.9-5.2,7.7-10.8l-.2-4.7-10.8-8.2-10.7-8.1-6.8,3.1c-9.3,4.3-17.8,5.6-26,4.2-9.1-1.6-12.2-3.3-12.2-6.9,0-5.5.4-5.6,37-6.1,31.3-.5,33.9-.6,35.9-2.4,2.9-2.6,3.6-7.7,2.3-17.3-1.5-11.5-5-20.7-11.6-30.6-9.3-13.9-18.1-20.8-31.3-24.2-7.1-1.9-26.5-1.9-34.8,0ZM1223.2,107.54c2.9.8,4.1,1.9,5.7,5.3,1.1,2.3,2.1,5.5,2.3,7.2l.3,3-14,.3c-7.7.2-16.8,0-20.2-.3l-6.2-.6,1-2.7c1.9-5.1,8.1-10.2,14.9-12.3,3.7-1.1,12-1,16.2.1Z"/>
      <path class="cls-1" d="M390,136.04c0,42.9-.3,62.1-1.1,63.8-1.5,3.3-4.9,4.7-11.4,4.7h-5.5v29h4c3.2,0,4.6.6,6.4,2.7,2,2.3,3.3,2.7,8.9,3.1,17.1,1.1,30.5-4.7,35.8-15.5l2.4-4.8V87.74l-2.1-2.4c-1.2-1.3-2.5-4.2-2.9-6.6l-.7-4.2h-33.8v61.5Z"/>
      <path class="cls-1" d="M950.9,85.24c2.1,6,11.1,31.4,20.1,56.5l16.3,45.8h3.2c2,0,3.5.6,3.9,1.5,1.8,4.7,19.1,6,23.7,1.9,3-2.7,4-4.8,14.3-31.8,8.9-23.5,11.7-29.6,13.5-29.6.8,0,4.1,8.2,16.9,42,5.6,14.7,6.1,15.5,8.8,15.8,1.6.2,3.8,1.2,4.9,2.2,2.9,2.7,7,4,12.6,4,6.5,0,11.4-2.1,13.3-5.8,3.3-6.4,34.6-95.8,34.6-98.8,0-2.2-.7-3.8-2.1-4.8-2.1-1.4-2.2-3.1-.3-8,.6-1.5-1-1.6-16.1-1.4l-16.8.3-10.3,30.9c-5.7,17-10.7,31.3-11.1,31.7-.5.4-5.3-10.4-10.7-24.2-5.5-13.7-10.7-25.8-11.7-26.8s-2.9-4.2-4.4-7l-2.6-5.2-10.1.3-10.1.3-9.8,25c-13.5,34.1-15.1,37.7-16,36.8-.4-.4-4.4-11.6-8.9-24.8-4.4-13.1-8.9-24.8-10-26-1-1.1-2.8-4.1-3.9-6.8l-2-4.7h-33.1l3.9,10.7Z"/>
    </g>
    <rect class="cls-1" y="1.14" width="37.7" height="222.4"/>
  </g>
</svg>