<?xml version="1.0" encoding="UTF-8"?>
<svg id="Vrstva_2" xmlns="http://www.w3.org/2000/svg" viewBox="0 0 302 41.64">
  <defs>
    <style>
      .cls-1 {
        fill: #94c9e1;
      }
    </style>
  </defs>
  <g id="Layer_1">
    <path class="cls-1" d="M92.51,7.46c-9.44,0-17.09,7.65-17.09,17.09s7.65,17.09,17.09,17.09,17.09-7.65,17.09-17.09-7.65-17.09-17.09-17.09M92.51,33.01c-4.68,0-8.47-3.79-8.47-8.47s3.79-8.47,8.47-8.47,8.47,3.79,8.47,8.47c0,4.68-3.79,8.47-8.47,8.47"/>
    <polygon class="cls-1" points="128.07 30.01 120.02 8.2 109.9 8.2 123.16 40.9 132.88 40.9 146.31 8.2 136.17 8.2 128.07 30.01"/>
    <rect class="cls-1" x="216.52" y="8.2" width="9.57" height="32.7"/>
    <path class="cls-1" d="M17.09,7.46C7.65,7.46,0,15.11,0,24.55c0,1.16.12,2.29.34,3.39h25.5c-1.36,3.51-4.76,6-8.75,6-2.89,0-5.46-1.31-7.18-3.36l-5.91,4.96c3.13,3.73,7.83,6.11,13.09,6.11,9.44,0,17.09-7.65,17.09-17.09S26.53,7.46,17.09,7.46M8.35,21.15h-.01c1.36-3.51,4.76-6,8.75-6,1.75,0,3.38.48,4.78,1.31,1.79,1.07,3.2,2.72,3.97,4.69H8.35Z"/>
    <path class="cls-1" d="M248.33,7.44c-9.44,0-17.09,7.65-17.09,17.09s7.65,17.09,17.09,17.09,17.09-7.65,17.09-17.09-7.65-17.09-17.09-17.09M248.33,33c-4.67,0-8.47-3.79-8.47-8.47s3.79-8.47,8.47-8.47,8.47,3.79,8.47,8.47c0,4.68-3.79,8.47-8.47,8.47"/>
    <path class="cls-1" d="M57.76,7.43c-.11,0-.23,0-.35,0-.13,0-.27,0-.4,0-3.02.1-5.76,1.35-7.78,3.33-.21.21-.42.43-.62.65l-.37-3.22h-9.23v32.69h9.57v-22.52c1.71-1.39,3.8-2.1,6.2-2.1,4.09,0,6.09,2.13,6.09,6.5v18.12h9.57v-18.12c0-5.17-1.02-8.92-3.12-11.46-2.1-2.55-5.23-3.81-9.56-3.87"/>
    <path class="cls-1" d="M298.88,11.3c-2.1-2.55-5.23-3.81-9.56-3.87-.12,0-.23,0-.35,0-.14,0-.27,0-.4,0-3.02.1-5.76,1.35-7.78,3.33-.21.21-.42.43-.62.65l-.37-3.22h-9.23v32.69h9.57v-22.52c1.71-1.39,3.8-2.09,6.2-2.09,4.09,0,6.08,2.12,6.08,6.5v18.12h9.58v-18.12c0-5.17-1.02-8.92-3.12-11.46"/>
    <path class="cls-1" d="M172.21,11.96h0c-3.35-4.04-7.84-4.43-9.85-4.43-9.46,0-15.75,8.68-15.75,16.98,0,8.83,6.11,17.04,15.6,17.04,1.5,0,6.8,0,10-4.43h0l.43,3.8h9.15V8.18h-9.12l-.46,3.77ZM164.2,33c-4.68,0-8.47-3.79-8.47-8.47s3.79-8.47,8.47-8.47,8.47,3.79,8.47,8.47-3.79,8.47-8.47,8.47"/>
    <path class="cls-1" d="M202.38,28.87c0,2.54,1.41,4.19,4.64,4.19,1.38,0,1.65-.06,3.35-.24v7.57c-2.16.79-4.61.95-5.68.95-10.14,0-11.85-6.61-11.85-12v-12.89h-6.34v-8.26h6.49V0h9.39v8.2h8.08v8.26h-8.08v12.42h0Z"/>
  </g>
</svg>