<?xml version="1.0" encoding="UTF-8"?>
<svg id="Vrstva_2" xmlns="http://www.w3.org/2000/svg" viewBox="0 0 841.89 145.95">
  <defs>
    <style>
      .cls-1 {
        fill: #94c9e1;
      }

      .cls-2 {
        fill: none;
      }

      .cls-3 {
        fill: #749daf;
      }
    </style>
  </defs>
  <g id="Layer_1">
    <path class="cls-2" d="M766.89,145.95c-255.63,0-511.26,0-766.89,0,0-4.81,0-9.59.1-14.66.28-.06.52.14.61.4.94,2.7,2.34,5.17,4.45,7.06,4.69,4.21,10.25,5.6,16.37,4.22,7.15-1.61,13.15-8.81,13.05-16.47-.15-11.81-.04-23.63-.04-35.45v-2.09c.84,0,1.5,0,2.16,0,11.45,0,22.9-.06,34.35.02,5.99.04,10.98-1.92,14.76-6.64,2.64-3.29,4.11-7.16,3.75-11.29-.25-2.86-1.21-5.86-2.62-8.37-2.95-5.25-7.78-8.15-13.81-8.23-12.85-.18-25.71-.08-38.58-.26,0-6.63,0-13.1,0-19.64h2.25c10.96,0,21.93.04,32.89-.03,2.27-.02,4.59-.25,6.8-.74,8.89-1.97,14.92-11.47,12.59-20.68-1.56-6.16-5.44-10.08-11.2-12.38-.28-.11-.46-.48-.69-.73,11.77,0,23.55,0,35.61.11,0,.28-.27.53-.59.63-6.88,2.08-12.1,9.27-11.89,16.62.17,6.37.03,12.74.04,19.11.02,12.49.04,24.99.04,37.65-.03,17.25.01,34.34-.07,51.43-.02,4.05.9,7.74,3.38,10.89,3.29,4.19,7.5,6.92,13.02,6.94,19.05.04,38.09.03,57.14,0,4,0,7.44-1.57,10.35-4.26,4.94-4.57,6.78-10.23,5.45-16.8-.7-3.48-2.46-6.54-5.14-8.84-3.91-3.37-8.59-4.71-13.77-4.67-11.15.09-22.29.03-33.44.03h-2.03c0-.96,0-1.68,0-2.41-.02-11.33-.04-22.66-.03-34.16.03-18.28.04-36.39.01-54.5,0-1.49-.15-3.03-.52-4.47-1.57-6.2-5.45-10.37-11.45-12.57-.22-.08-.34-.47-.5-.71C164.22,0,205.65,0,247.37.12c.05.28-.17.53-.44.59-3.7.87-7.47,1.5-11.1,2.6-8.29,2.51-15.79,6.53-22.62,11.91-5.09,4.01-9.62,8.55-13.47,13.69-3.5,4.66-6.33,9.77-8.59,15.2-3.29,7.92-5.03,16.17-5.45,24.69-.14,2.84.1,5.71.35,8.55.28,3.1.53,6.24,1.22,9.26,1.64,7.28,4.29,14.19,8.05,20.68,4.84,8.37,11.16,15.44,18.8,21.25,7.44,5.66,15.76,9.75,24.86,12.1,5.29,1.36,10.64,2.4,16.31,2.35,5.93.18,11.63-.22,17.3-1.4,8.62-1.8,16.64-4.98,24.06-9.73,5.77-3.7,11-7.98,15.47-13.22,3.52-4.12,6.7-8.43,9.24-13.23,3.23-6.1,5.9-12.42,7.01-19.25.81-4.98,1.49-10.01,1.68-15.04.14-3.57-.58-7.19-1.01-10.78-.85-7-3.06-13.61-6.11-19.91-4.35-8.99-10.36-16.74-18-23.23-5.8-4.93-12.13-8.95-19.18-11.79-5.49-2.2-11.07-4.12-17.01-4.71-.26-.03-.48-.46-.72-.7,29.05,0,58.1,0,87.45.11.06.28-.15.54-.41.61-6.88,1.8-12.32,9.53-12.11,16.89.28,10.03.06,20.06.07,30.1,0,8.75.04,17.49.04,26.41-.03,17.57-.04,34.96-.02,52.36,0,1.01.21,2.02.35,3.03,1.03,7.55,8.86,14.02,16.59,13.91,10.35-.15,20.71-.03,31.06-.04,9,0,18.01-.04,27.18-.03,3.11-.22,6.1-.22,9-.77,8.36-1.57,16.38-4.17,23.8-8.47,7.16-4.15,13.47-9.25,18.89-15.52,6.51-7.53,11.21-16.01,14.28-25.44,2.12-6.5,3.2-13.21,3.27-19.99.18-18.49.11-36.98.02-55.47-.02-3.29-.89-6.43-2.73-9.33-2.57-4.03-6.17-6.42-10.69-7.65-.22-.06-.34-.46-.51-.7,14.84,0,29.67,0,44.8.12-.44.3-1.18.45-1.9.67-9.74,3-14.52,10.5-12.99,20.11,1.3,8.17,8.27,14.05,16.87,14.03,6.92-.01,13.85-.02,20.77.01,1.19,0,2.43.08,3.57.38,6.32,1.67,9.84,8.97,5.97,14.99-2.25,3.5-5.65,4.72-9.52,4.8-5.39.12-10.78.02-16.17.04-.58,0-1.16.17-1.89.3-.92-.07-1.68-.24-2.45-.3-3.49-.31-6.67.69-9.52,2.59-4.76,3.18-7.7,7.58-7.72,13.43-.08,19.04-.04,38.08,0,57.12,0,1.24.21,2.52.57,3.71,2.3,7.63,10.82,13.21,19.45,11.85,7.92-1.25,14.66-8.83,14.56-17.05-.14-12.36,0-24.73.19-37.1,2.28-.12,4.42-.12,6.51-.4,3.55-.47,7.17-.77,10.6-1.74,9.34-2.64,16.91-8.03,22.79-15.75,5.8-7.61,8.79-16.27,9.06-25.78.1-3.39-.43-6.85-1.07-10.21-2.02-10.56-7.47-19.17-15.89-25.73-6.95-5.42-14.83-8.87-23.79-9.39-.25-.01-.48-.46-.72-.7,39.71,0,79.43,0,119.43.13-.21.29-.69.52-1.2.59-3.91.6-7.85,1.01-11.73,1.77-7.81,1.54-14.97,4.8-21.77,8.87-6.58,3.94-12.34,8.9-17.22,14.77-5.07,6.08-9.2,12.78-12.01,20.25-2.76,7.34-4.68,14.87-4.72,22.73-.11,19.3-.05,38.6-.03,57.89,0,5.14,2.03,9.38,6.01,12.66,6.02,4.96,12.67,5.59,19.46,2.14,5.82-2.95,9.02-7.92,9.07-14.63.13-19.21.2-38.42.43-57.63.03-2.65.64-5.36,1.38-7.92,2.14-7.43,6.39-13.52,12.45-18.3,1.78-1.4,3.77-2.55,5.94-4,0,5.51,0,10.47-.16,15.44-8.44.58-16.1,6.69-16.62,17.07-.22,4.42,1.46,8.55,4.64,11.91,3.3,3.49,7.41,5.2,12.16,5.7v2.13c0,11.95.02,23.89,0,35.84-.01,4.69,1.94,8.58,5.19,11.67,4.58,4.36,10.27,5.69,16.38,4.24,7.71-1.82,13.03-8.55,13-16.42-.09-19.27-.2-38.53-.17-57.89.14-17.88.17-35.67.14-53.45,0-1.05-.28-2.13-.61-3.14-2.04-6.13-6.22-10.02-12.46-11.71-.33-.09-.58-.47-.87-.72,56.74,0,113.48,0,170.22,0,0,5.3,0,10.57-.11,16.13-.28,0-.54-.28-.61-.6-.66-3.09-2.22-5.82-4.44-7.86-4.5-4.12-9.9-6.12-16.08-4.69-6.14,1.42-10.31,5.11-12.68,11.07-1.37,3.46-.78,7.03-1.32,10.52-.66,4.3-1.76,8.44-3.8,12.22-2.74,5.06-6.35,9.44-11.11,12.86-8.48,6.1-17.88,8.43-28.1,6.89-7.03-1.06-13.39-4.09-18.7-8.87-8.22-7.4-12.6-16.66-12.63-27.85-.01-4.63-1.61-8.76-4.91-11.99-4.49-4.38-9.94-6.17-16.18-4.85-6.43,1.35-11.36,5.86-13.1,12.35-.88,3.27-.91,6.54-.37,9.86.64,3.9.98,7.86,1.8,11.72,1.31,6.15,3.67,11.93,6.77,17.41,4.03,7.12,8.95,13.48,15.14,18.92,6.15,5.4,12.89,9.78,20.47,12.75,3.92,1.54,8.04,2.54,12.08,3.95,0,12.88-.02,25.59.02,38.3,0,1.49.18,3.02.54,4.46,1.55,6.21,5.42,10.35,11.45,12.49.33.12.58.5.86.76Z"/>
    <path class="cls-1" d="M473.34,0c.34.24.47.64.68.7,4.51,1.23,8.12,3.61,10.69,7.65,1.84,2.89,2.71,6.04,2.73,9.33.09,18.49.16,36.98-.02,55.47-.07,6.78-1.15,13.49-3.27,19.99-3.07,9.43-7.77,17.91-14.28,25.44-5.42,6.28-11.73,11.37-18.89,15.52-7.42,4.3-15.44,6.9-23.8,8.47-2.89.54-5.88.54-8.92.65,3.84-.92,7.13-2.76,9.86-5.72,3.71-4.01,5.02-8.86,4.09-13.99-1.7-9.41-8.8-14.42-17.86-14.39-4.9.01-9.79.01-14.69-.01-.64,0-1.28-.21-1.91-.49.02-30.23.12-60.3-.05-90.36-.04-7.51,4.81-15.62,12.07-17.56.22-.06.34-.46.5-.71,3.19,0,6.39,0,9.63.11.4.29.74.52,1.12.65,7.04,2.6,11.66,8.92,11.67,16.56.03,28.29.01,56.59.01,84.88v2.6c2.53-1.8,4.87-3.15,6.85-4.91,8.52-7.53,13.01-16.96,13.01-28.43,0-17.88.07-35.77-.03-53.65-.05-7.79,5.61-15.54,13.31-17.11.27-.05.47-.46.7-.71,2.21,0,4.43,0,6.81,0Z"/>
    <path class="cls-1" d="M754.02,89.76c-4.03-1.24-8.16-2.25-12.08-3.78-7.59-2.97-14.32-7.35-20.47-12.75-6.19-5.44-11.11-11.8-15.14-18.92-3.1-5.48-5.47-11.26-6.77-17.41-.82-3.86-1.16-7.82-1.8-11.72-.54-3.32-.51-6.59.37-9.86,1.74-6.5,6.67-11,13.1-12.35,6.23-1.31,11.69.47,16.18,4.85,3.3,3.23,4.9,7.36,4.91,11.99.03,11.2,4.41,20.45,12.63,27.85,5.3,4.78,11.66,7.81,18.7,8.87,10.22,1.54,19.62-.79,28.1-6.89,4.77-3.43,8.37-7.8,11.11-12.86,2.04-3.78,3.14-7.93,3.8-12.22.54-3.49-.05-7.06,1.32-10.52,2.36-5.96,6.54-9.64,12.68-11.07,6.18-1.43,11.57.56,16.08,4.69,2.22,2.03,3.78,4.77,4.44,7.86.07.32.33.6.61.77.11,3.56.11,7.25-.02,10.98-.53,2.02-.98,3.98-1.33,5.96-1.64,9.42-5.29,18.03-10.53,25.98-3.32,5.04-7.2,9.59-11.73,13.64-4.27,3.82-8.79,7.31-13.91,9.8-4.95,2.41-10.19,4.25-15.45,6.31-.81.09-1.46.24-2.12.33-5.56.75-11.1,2-16.67,2.09-5.33.09-10.67-1.04-16.01-1.63Z"/>
    <path class="cls-1" d="M651.06,54.75v-15.43c-2.17,1.45-4.16,2.6-5.94,4-6.06,4.78-10.3,10.87-12.45,18.3-.74,2.56-1.35,5.27-1.38,7.92-.23,19.21-.3,38.42-.43,57.63-.05,6.71-3.25,11.68-9.07,14.63-6.8,3.45-13.44,2.81-19.46-2.14-3.98-3.28-6-7.51-6.01-12.66-.02-19.3-.09-38.6.03-57.89.05-7.85,1.96-15.39,4.72-22.73,2.81-7.47,6.94-14.17,12.01-20.25,4.89-5.87,10.65-10.83,17.22-14.77,6.8-4.07,13.96-7.33,21.77-8.87,3.87-.77,7.82-1.18,11.73-1.77.51-.08.99-.3,1.37-.59C667.15,0,669.24,0,671.5,0c.46.25.71.63,1.04.72,6.24,1.69,10.42,5.57,12.46,11.71.34,1.01.61,2.09.61,3.14.02,17.79,0,35.57-.18,53.32-.28-.45-.41-.85-.51-1.26-1.49-6.19-6.74-11.27-13.05-12.06-3.97-.5-8.02-.4-12.04-.55-2.93-.11-5.86-.18-8.78-.26Z"/>
    <path class="cls-1" d="M267.84,0c.41.24.63.68.89.7,5.95.59,11.53,2.51,17.01,4.71,7.05,2.83,13.38,6.86,19.18,11.79,7.64,6.5,13.65,14.24,18,23.23,3.05,6.3,5.26,12.92,6.11,19.91.43,3.59,1.15,7.2,1.01,10.78-.19,5.03-.87,10.06-1.68,15.04-1.12,6.83-3.78,13.15-7.01,19.25-2.54,4.8-5.72,9.11-9.24,13.23-4.47,5.24-9.7,9.53-15.47,13.22-7.41,4.75-15.43,7.93-24.06,9.73-5.67,1.18-11.37,1.58-17.38,1.28-10.29-1.71-17.37-12.35-13.81-22.35,2.43-6.83,7.36-10.66,14.63-11.78.86-.11,1.57-.21,2.29-.28,2.64-.26,5.35-.2,7.9-.82,8.68-2.12,15.87-6.69,21.36-13.8,5.07-6.58,7.59-14.09,7.61-22.36.01-7.04-1.88-13.61-5.65-19.58-2.91-4.61-6.68-8.46-11.24-11.41-6-3.88-12.6-6.06-19.76-6.1,7.63-.47,15.12-6.67,16.24-14.88,1-7.29-3.07-14.68-9.16-17.55-1.6-.76-3.31-1.3-4.96-1.94,2.34,0,4.67,0,7.18,0Z"/>
    <path class="cls-3" d="M255.88,108.76c-7.12,1.1-12.05,4.93-14.48,11.76-3.55,10,3.52,20.64,13.64,22.32-5.42.19-10.77-.85-16.06-2.22-9.1-2.35-17.42-6.43-24.86-12.1-7.64-5.81-13.96-12.89-18.8-21.25-3.76-6.49-6.4-13.4-8.05-20.68-.68-3.03-.94-6.16-1.22-9.26-.25-2.84-.49-5.71-.35-8.55.42-8.52,2.16-16.77,5.45-24.69,2.25-5.42,5.09-10.53,8.59-15.2,3.85-5.14,8.39-9.68,13.47-13.69,6.83-5.38,14.34-9.4,22.62-11.91,3.63-1.1,7.4-1.73,11.1-2.6.27-.06.49-.31.61-.59C251.72,0,256.01,0,260.48,0c1.83.64,3.53,1.19,5.14,1.94,6.09,2.87,10.16,10.26,9.16,17.55-1.12,8.21-8.61,14.41-16.41,14.91-2.89.39-5.57.4-8.15.92-11.85,2.39-20.42,9.28-25.91,19.89-3.41,6.6-4.39,13.7-3.41,21.14.76,5.76,2.71,11.01,5.97,15.69,5.04,7.25,11.72,12.5,20.34,14.9,2.84.79,5.77,1.22,8.66,1.81Z"/>
    <path class="cls-3" d="M34.58,54.37c12.86.01,25.71-.09,38.57.09,6.03.09,10.86,2.98,13.81,8.23,1.41,2.51,2.37,5.51,2.62,8.37.36,4.13-1.11,8-3.75,11.29-3.78,4.72-8.77,6.68-14.76,6.64-11.45-.08-22.9-.02-34.35-.02-.66,0-1.32,0-2.16,0v2.09c0,11.82-.11,23.63.04,35.45.1,7.66-5.9,14.86-13.05,16.47-6.12,1.38-11.68,0-16.37-4.22-2.11-1.9-3.51-4.37-4.45-7.06-.09-.26-.34-.46-.61-.57-.1-20.6-.1-41.31.01-62.28,1.56-6.6,5.07-11.27,11.4-13.23,2.55-.79,5.35-.94,8.05-1.05,5-.19,10.01-.14,15.02-.19Z"/>
    <path class="cls-3" d="M523.17,55.41c.58-.09,1.16-.25,1.74-.26,5.39-.02,10.79.08,16.17-.04,3.87-.08,7.27-1.3,9.52-4.8,3.88-6.02.35-13.32-5.97-14.99-1.15-.3-2.38-.38-3.57-.38-6.92-.03-13.85-.03-20.77-.01-8.6.02-15.57-5.86-16.87-14.03-1.53-9.61,3.25-17.11,12.99-20.11.72-.22,1.46-.37,2.07-.67C527.32,0,536.28,0,545.4,0c.41.24.64.69.89.7,8.97.52,16.84,3.98,23.79,9.39,8.42,6.56,13.87,15.17,15.89,25.73.64,3.35,1.16,6.82,1.07,10.21-.27,9.5-3.26,18.16-9.06,25.78-5.88,7.73-13.44,13.12-22.79,15.75-3.43.97-7.05,1.27-10.6,1.74-2.1.28-4.23.27-6.54.23-.22-1.64-.22-3.1-.25-4.57-.09-4.88.02-9.78-.34-14.64-.59-7.75-6.38-13.62-14.28-14.91Z"/>
    <path class="cls-2" d="M788.97,89.01c5.11-2.09,10.34-3.93,15.3-6.34,5.12-2.49,9.63-5.98,13.91-9.8,4.53-4.05,8.41-8.6,11.73-13.64,5.24-7.95,8.89-16.56,10.53-25.98.34-1.98.8-3.94,1.33-5.79.13,39.55.13,78.97.13,118.5-21.7,0-43.4,0-65.39-.1,0-.28.27-.52.59-.63,7.4-2.55,11.95-9.48,11.89-17.1-.1-13.04-.02-26.07-.01-39.11Z"/>
    <path class="cls-1" d="M34.57,54.2c-5,.22-10.01.16-15.01.36-2.7.1-5.5.26-8.05,1.05-6.33,1.96-9.84,6.64-11.4,13.06-.11-18.68-.11-37.43-.01-56.24.24-.17.46-.26.51-.4C2.46,6.37,6.18,2.59,11.82.68c.16-.06.21-.45.31-.68C33.71,0,55.28,0,77.03,0c.4.25.58.62.86.73,5.76,2.3,9.64,6.22,11.2,12.38,2.33,9.21-3.7,18.71-12.59,20.68-2.22.49-4.53.72-6.8.74-10.96.07-21.93.03-32.89.03h-2.25c0,6.55,0,13.01,0,19.64Z"/>
    <path class="cls-1" d="M343.07,73.94c-.02-8.75-.05-17.49-.06-26.24-.01-10.03.21-20.07-.07-30.1-.2-7.36,5.23-15.09,12.11-16.89.26-.07.47-.33.58-.61C358.7,0,361.89,0,365.14.1c.28.28.5.47.75.62,2.19,1.31,4.62,2.34,6.54,3.98,3.93,3.35,5.43,7.97,5.49,13.01.09,8.69.03,17.38.02,26.07-.01,9.67-.04,19.34-.18,29.08-.43,1.47-.59,2.92-1.09,4.24-2.44,6.45-7.11,10.26-13.89,11.5-5.31.97-9.82-.73-13.82-4.15-3.26-2.78-4.97-6.42-5.89-10.51Z"/>
    <path class="cls-1" d="M122.62,0c.34.24.45.63.68.71,6.01,2.2,9.88,6.37,11.45,12.57.37,1.44.52,2.98.52,4.47.03,18.11.02,36.22-.13,54.58-.47,1.77-.61,3.37-1.16,4.81-2.41,6.43-7.08,10.22-13.83,11.47-5.19.96-9.62-.66-13.57-3.92-3.39-2.8-5.29-6.49-6.15-10.75-.02-12.49-.04-24.99-.06-37.48,0-6.37.14-12.74-.04-19.11-.2-7.34,5.02-14.54,11.89-16.62.32-.1.59-.34.76-.63C116.06,0,119.25,0,122.62,0Z"/>
    <path class="cls-2" d="M377.87,72.79c.02-9.67.05-19.34.06-29.01.01-8.69.07-17.38-.02-26.07-.05-5.04-1.56-9.66-5.49-13.01-1.91-1.63-4.34-2.67-6.54-3.98-.25-.15-.46-.34-.57-.62C380.27,0,395.1,0,410.11,0c0,.24-.12.65-.33.71-7.26,1.94-12.11,10.05-12.07,17.56.18,30.06.07,60.13-.12,90.37-6.65.18-13.11.18-19.66.18,0-.96,0-1.68,0-2.41-.02-11.2-.04-22.41-.06-33.61Z"/>
    <path class="cls-2" d="M466.36,0c-.06.24-.25.65-.52.71-7.69,1.57-13.35,9.31-13.31,17.11.1,17.88.03,35.76.03,53.65,0,11.46-4.49,20.9-13.01,28.43-1.98,1.75-4.31,3.11-6.85,4.91v-2.6c0-28.29.02-56.59-.01-84.88,0-7.64-4.63-13.96-11.67-16.56-.37-.14-.71-.36-.94-.65C435.54,0,450.86,0,466.36,0Z"/>
    <path class="cls-3" d="M788.82,88.97c.14,13.07.06,26.11.16,39.14.06,7.62-4.49,14.55-11.89,17.1-.32.11-.59.35-.76.63-2.95.1-6.02.1-9.26.1-.46-.26-.7-.64-1.03-.76-6.03-2.15-9.9-6.28-11.45-12.49-.36-1.44-.53-2.97-.54-4.46-.04-12.71-.02-25.42-.02-38.3,5.34.42,10.68,1.55,16.01,1.46,5.57-.09,11.12-1.34,16.67-2.09.66-.09,1.31-.24,2.12-.33Z"/>
    <path class="cls-2" d="M11.96,0c.07.24.02.63-.14.68C6.18,2.59,2.46,6.37.61,12.02c-.05.15-.27.24-.51.23C0,8.12,0,4.1,0,0h11.96Z"/>
    <path class="cls-3" d="M100.4,74.11c.89,4.09,2.78,7.78,6.18,10.58,3.95,3.26,8.38,4.88,13.57,3.92,6.76-1.25,11.42-5.04,13.83-11.47.54-1.44.69-3.04,1.13-4.64.14,11.25.16,22.58.18,33.91,0,.73,0,1.45,0,2.41h2.03c11.15,0,22.29.07,33.44-.03,5.19-.04,9.86,1.3,13.77,4.67,2.68,2.3,4.44,5.36,5.14,8.84,1.32,6.58-.51,12.23-5.45,16.8-2.91,2.69-6.35,4.25-10.35,4.26-19.05.03-38.09.04-57.14,0-5.52-.01-9.73-2.75-13.02-6.94-2.48-3.15-3.4-6.84-3.38-10.89.08-17.09.04-34.17.07-51.43Z"/>
    <path class="cls-3" d="M377.75,72.87c.14,11.13.16,22.33.18,33.54,0,.73,0,1.46,0,2.41,6.55,0,13.01,0,19.65,0,.81.1,1.45.3,2.09.31,4.9.03,9.79.03,14.69.01,9.06-.03,16.16,4.98,17.86,14.39.93,5.13-.38,9.98-4.09,13.99-2.74,2.95-6.03,4.8-10.03,5.69-9.08.13-18.09.16-27.09.17-10.35.01-20.71-.11-31.06.04-7.73.11-15.56-6.36-16.59-13.91-.14-1.01-.34-2.02-.35-3.03-.02-17.4,0-34.8.02-52.36.94,3.92,2.65,7.56,5.91,10.35,4,3.42,8.5,5.12,13.82,4.15,6.78-1.23,11.45-5.05,13.89-11.5.5-1.32.66-2.77,1.09-4.24Z"/>
    <path class="cls-3" d="M650.9,54.76c3.08.07,6.01.14,8.94.25,4.02.15,8.06.05,12.04.55,6.31.79,11.56,5.87,13.05,12.06.1.41.23.81.39,1.35.14,19.4.24,38.67.33,57.94.04,7.87-5.29,14.6-13,16.42-6.12,1.44-11.8.11-16.38-4.24-3.24-3.08-5.2-6.98-5.19-11.67.03-11.95,0-23.89,0-35.84v-2.13c-4.75-.5-8.86-2.21-12.16-5.7-3.18-3.36-4.86-7.49-4.64-11.91.52-10.39,8.17-16.49,16.62-17.07Z"/>
    <path class="cls-1" d="M523.02,55.46c8.05,1.25,13.85,7.12,14.44,14.86.37,4.86.25,9.76.34,14.64.03,1.47.04,2.93.08,4.57.01,12.54-.13,24.9.01,37.27.1,8.23-6.64,15.8-14.56,17.05-8.63,1.36-17.15-4.22-19.45-11.85-.36-1.19-.56-2.47-.57-3.71-.03-19.04-.07-38.08,0-57.12.02-5.85,2.96-10.25,7.72-13.43,2.85-1.9,6.03-2.89,9.52-2.59.77.07,1.53.23,2.45.3Z"/>
    <path class="cls-2" d="M256.03,108.73c-3.04-.57-5.98-.99-8.82-1.78-8.63-2.4-15.3-7.65-20.34-14.9-3.26-4.68-5.22-9.93-5.97-15.69-.98-7.44,0-14.54,3.41-21.14,5.49-10.61,14.06-17.5,25.91-19.89,2.58-.52,5.26-.53,8.07-.8,7.41-.11,14.01,2.07,20.01,5.95,4.56,2.95,8.33,6.81,11.24,11.41,3.77,5.97,5.66,12.54,5.65,19.58-.02,8.27-2.54,15.78-7.61,22.36-5.48,7.11-12.68,11.68-21.36,13.8-2.55.62-5.26.56-7.9.82-.71.07-1.42.16-2.29.28Z"/>
  </g>
</svg>