<?xml version="1.0" encoding="UTF-8"?>
<svg id="Vrstva_2" xmlns="http://www.w3.org/2000/svg" viewBox="0 0 841.83 310.24">
  <defs>
    <style>
      .cls-1 {
        fill: #a7a7a7;
      }

      .cls-2 {
        fill: #94c9e1;
      }

      .cls-3 {
        fill: #fff;
      }

      .cls-4 {
        fill: #cecece;
      }

      .cls-5 {
        fill: #bdbdbd;
      }

      .cls-6 {
        fill: #dbdbdb;
      }

      .cls-7 {
        fill: #f0efef;
      }

      .cls-8 {
        fill: #9a9797;
      }

      .cls-9 {
        fill: #fffffe;
      }

      .cls-10 {
        fill: #f7f7f7;
      }

      .cls-11 {
        fill: #e8e8e8;
      }
    </style>
  </defs>
  <g id="Layer_1">
    <path class="cls-3" d="M627.77,310.24H0V0h841.83v310.24h-214.07M557.15,162.3c-2.47-.33-1.82,1.51-1.82,2.75-.02,32.47-.02,64.94-.02,97.41v2.52h22.83v-48.09c.17-.02.33-.04.5-.06,3.65,16.04,7.29,32.09,10.94,48.15h22.65v-102.48h-22.49v46.35c-1.97-7.7-3.63-15.41-5.3-23.12-1.69-7.78-3.39-15.56-5.1-23.42-7.37,0-14.48,0-22.19,0M687.18,162.04c-3.8-.08-7.62-.45-11.39-.15-5.02.4-9.88,1.72-13.92,5-7.14,5.81-9.25,13.92-9.38,22.52-.26,17.33-.14,34.67-.05,52,.05,10.57,6.26,19.2,16.26,22.52,8.95,2.97,17.95,2.53,26.8-.55,8.15-2.83,13.1-8.73,13.82-17.21.71-8.25.3-16.59.36-24.89,0-.14-.24-.29-.29-.34h-23.01c0,5.39.07,10.59-.03,15.78-.05,2.28-.24,4.6-.74,6.81-.56,2.45-2.4,3.58-4.93,3.46-2.55-.11-4.11-1.53-4.68-3.9-.34-1.44-.4-2.98-.4-4.47-.03-16.63-.02-33.26,0-49.9,0-1.39.07-2.82.35-4.18.63-3.06,2.52-4.37,5.65-4.1,2.95.25,4.48,1.98,4.55,5.62.11,5.68.03,11.36.03,17.03h23.37c0-5.99.09-11.8-.04-17.59-.06-2.48-.24-5.05-.95-7.39-3.12-10.22-11.06-14.36-21.37-16.07M411.48,256.8c3.52,2.38,6.78,5.39,10.63,6.99,7.13,2.96,14.74,2.58,22.17.94,12.28-2.71,17.89-9.03,18.8-21.47.46-6.28.18-12.61.23-18.92,0-1.16,0-2.31,0-3.43h-23.48c0,5.36.04,10.55-.02,15.74-.03,2.09-.07,4.23-.5,6.26-.55,2.6-2.21,4.22-5.12,4.08-2.84-.13-4.38-1.75-4.85-4.43-.24-1.37-.3-2.79-.3-4.18-.02-16.44-.02-32.87,0-49.31,0-1.59.07-3.23.41-4.77.56-2.55,2.21-3.91,4.94-3.87,3.36.04,5.12,1.73,5.2,5.59.12,5.68.03,11.37.03,17.09h23.31c0-6.98.32-13.8-.08-20.57-.44-7.5-4.26-13.21-10.9-16.88-7.53-4.16-15.71-4.84-23.92-3.49-4.31.71-8.89,2.22-12.41,4.7-7.7,5.45-9.57,14.07-9.68,22.89-.23,17.13-.12,34.27-.04,51.41.03,5.65,1.65,10.85,5.58,15.63M602.79,106.38h5.87v-19.46h-21.52v-19.78h22.49v-20.07h-3.13c-13.32,0-26.64.07-39.96-.06-2.68-.03-3.56.59-3.55,3.44.11,32.05.07,64.1.07,96.15v2.89h48.14v-19.87h-24.05v-23.26c5.09,0,10.07,0,15.64,0M445.26,67.29h12.01v-19.96h-46.35v102.21h23.59v-46.18h21.65v-19.97h-21.5v-16.1h10.6M554.17,64.94c0-5.11-.08-10.22.04-15.32.04-1.97-.59-2.62-2.57-2.58-5.21.11-10.42.04-15.63.04-10.46,0-20.92,0-31.38,0,5.82,3.22,9.4,8,10.39,14.37.82,5.32,1.45,10.75,1.28,16.11-.26,8.3-2.55,15.74-12.95,18.36,6.19,1.26,9.49,4.43,10.61,9.64.42,1.94.62,3.96.63,5.95.06,11.62.03,23.24.03,34.86v3.2h40.81v-19.88h-23.94v-23.35h21.49v-19.43h-21.48v-19.55c1.15-.05,2.13-.13,3.11-.13,5.71-.01,11.42-.01,17.13,0,1.24,0,2.52.12,2.43-2.27M500.58,265.13h17.67v-17.54h-23.99v-85.12h-22.95v102.66h29.28M644.1,260v-97.56h-22.32v102.51h22.32v-4.95M523.64,257.01v7.98h22.31v-102.51h-22.31v94.52M371.1,36.72c-5.7-.84-11.39-2.39-17.09-2.39-56.7.02-113.4.21-170.1.56-11.14.07-20.01,5.29-27.09,13.85-6.66,8.05-8.28,17.65-8.27,27.52.06,57,.21,114,.64,171,.08,10.73,5.36,19.42,13.64,26.29,8.11,6.73,17.83,8.37,27.79,8.36,56.7-.05,113.4-.25,170.1-.6,11.12-.07,20.05-5.21,27.14-13.77,6.74-8.13,8.28-17.86,8.31-27.81.15-53.72.1-107.44.02-161.15,0-4.76-.32-9.6-1.25-14.26-2.67-13.4-10.71-22.45-23.85-27.59M477.94,111.49v38.09h14.68c0-13.18.02-26.18-.05-39.17,0-.9-.48-2.02-1.12-2.67-3.61-3.71-7.98-5.41-13.51-4.81,0,2.81,0,5.39,0,8.57M480.26,65.12c-1.62-.21-2.36.34-2.27,2.14.14,2.8.04,5.61.04,8.42,0,2.96,0,5.91,0,8.97,1.21,0,1.9,0,2.6,0,7.44.05,9.31-1.82,9.35-9.37,0-.3,0-.6,0-.9-.02-8.04-1.22-9.25-9.71-9.25Z"/>
    <path class="cls-2" d="M557.45,162.3c7.41,0,14.52,0,21.89,0,1.71,7.86,3.41,15.64,5.1,23.42,1.67,7.71,3.34,15.42,5.3,23.12v-46.35h22.49v102.48h-22.65c-3.65-16.06-7.3-32.11-10.94-48.15-.17.02-.33.04-.5.06v48.09h-22.83v-2.52c0-32.47,0-64.94.02-97.41,0-1.24-.65-3.07,2.12-2.75Z"/>
    <path class="cls-2" d="M687.45,162.09c10.05,1.67,17.99,5.8,21.11,16.03.72,2.35.9,4.92.95,7.39.13,5.8.04,11.6.04,17.59h-23.37c0-5.68.08-11.36-.03-17.03-.07-3.64-1.6-5.36-4.55-5.62-3.12-.27-5.02,1.04-5.65,4.1-.28,1.36-.35,2.78-.35,4.18-.02,16.63-.02,33.26,0,49.9,0,1.49.06,3.03.4,4.47.57,2.37,2.13,3.79,4.68,3.9,2.54.11,4.38-1.01,4.93-3.46.5-2.22.69-4.53.74-6.81.1-5.19.03-10.39.03-15.78h23.01c.05.06.29.2.29.34-.06,8.3.34,16.64-.36,24.89-.73,8.47-5.67,14.37-13.82,17.21-8.85,3.08-17.85,3.52-26.8.55-10-3.32-16.21-11.95-16.26-22.52-.09-17.33-.2-34.67.05-52,.13-8.6,2.24-16.71,9.38-22.52,4.03-3.28,8.89-4.61,13.92-5,3.77-.3,7.59.08,11.65.2Z"/>
    <path class="cls-2" d="M411.34,256.64c-3.8-4.61-5.42-9.82-5.44-15.46-.08-17.14-.19-34.28.04-51.41.12-8.82,1.98-17.44,9.68-22.89,3.51-2.49,8.1-3.99,12.41-4.7,8.21-1.35,16.39-.67,23.92,3.49,6.64,3.67,10.46,9.38,10.9,16.88.4,6.77.08,13.59.08,20.57h-23.31c0-5.72.09-11.41-.03-17.09-.08-3.86-1.84-5.54-5.2-5.59-2.73-.03-4.38,1.32-4.94,3.87-.34,1.55-.4,3.18-.41,4.77-.03,16.44-.02,32.87,0,49.31,0,1.4.06,2.81.3,4.18.47,2.67,2.01,4.29,4.85,4.43,2.9.14,4.56-1.48,5.12-4.08.43-2.03.47-4.17.5-6.26.06-5.19.02-10.38.02-15.74h23.48c0,1.12,0,2.28,0,3.43-.05,6.31.23,12.64-.23,18.92-.91,12.44-6.53,18.76-18.8,21.47-7.43,1.64-15.04,2.02-22.17-.94-3.85-1.6-7.11-4.62-10.77-7.16Z"/>
    <path class="cls-2" d="M602.49,106.38c-5.28,0-10.25,0-15.34,0v23.26h24.05v19.87h-48.14v-2.89c0-32.05.04-64.1-.07-96.15,0-2.86.88-3.47,3.55-3.44,13.32.13,26.64.06,39.96.06h3.13v20.07h-22.49v19.78h21.52v19.46h-6.16Z"/>
    <path class="cls-2" d="M444.96,67.29h-10.3v16.1h21.5v19.97h-21.65v46.18h-23.59V47.34h46.35v19.96h-12.31Z"/>
    <path class="cls-2" d="M554.17,65.21c.09,2.12-1.18,2-2.42,2-5.71-.01-11.42-.01-17.13,0-.98,0-1.96.08-3.11.13v19.55h21.48v19.43h-21.49v23.35h23.94v19.88h-40.81v-3.2c0-11.62.03-23.24-.03-34.86,0-1.99-.21-4.01-.63-5.95-1.12-5.21-4.42-8.38-10.61-9.64,10.41-2.62,12.69-10.06,12.95-18.36.17-5.36-.46-10.79-1.28-16.11-.98-6.37-4.57-11.15-10.39-14.37,10.46,0,20.92,0,31.38,0,5.21,0,10.42.08,15.63-.04,1.98-.04,2.61.61,2.57,2.58-.11,5.11-.04,10.22-.04,15.6Z"/>
    <path class="cls-2" d="M500.28,265.13h-28.97v-102.66h22.95v85.12h23.99v17.54h-17.97Z"/>
    <path class="cls-2" d="M644.1,260.3v4.65h-22.32v-102.51h22.32v97.86Z"/>
    <path class="cls-2" d="M523.64,256.71v-94.22h22.31v102.51h-22.31v-8.28Z"/>
    <path class="cls-10" d="M371.32,36.81c12.92,5.04,20.95,14.1,23.63,27.5.93,4.65,1.24,9.5,1.25,14.26.08,53.72.13,107.44-.02,161.15-.03,9.96-1.57,19.68-8.31,27.81-7.09,8.56-16.02,13.7-27.14,13.77-56.7.35-113.4.55-170.1.6-9.97,0-19.68-1.63-27.79-8.36-8.28-6.87-13.56-15.56-13.64-26.29-.43-57-.58-114-.64-171-.01-9.87,1.61-19.46,8.27-27.52,7.07-8.56,15.95-13.78,27.09-13.85,56.7-.35,113.4-.54,170.1-.56,5.7,0,11.39,1.56,17.31,2.48M221.56,279.57c20.45,0,40.89.08,61.34-.02,26.43-.12,52.87-.27,79.3-.65,8.12-.12,15.03-3.83,20.85-9.33,7.89-7.48,10.73-17.15,10.76-27.65.11-37.18.11-74.36.02-111.55-.05-20.62-.26-41.24-.63-61.86-.15-8.24-3.8-15.25-9.39-21.13-7.49-7.87-17.16-10.71-27.66-10.73-56.02-.09-112.05-.07-168.07,0-7.65.01-14.99,1.54-21.53,5.95-5.18,3.49-9.2,8.05-11.93,13.54-2.78,5.59-3.7,11.75-3.7,18,0,54.62-.04,109.24.05,163.86,0,4.76.25,9.62,1.25,14.25,2.4,11.12,8.97,19.1,19.4,23.89,5.78,2.65,11.9,3.27,18.08,3.37,10.42.16,20.85.05,31.87.05Z"/>
    <path class="cls-2" d="M477.94,111.19c0-2.88,0-5.46,0-8.27,5.54-.6,9.91,1.11,13.51,4.81.63.65,1.11,1.77,1.12,2.67.07,12.99.05,25.99.05,39.17h-14.68c0-12.73,0-25.41,0-38.39Z"/>
    <path class="cls-2" d="M480.53,65.12c8.22,0,9.42,1.21,9.44,9.25,0,.3,0,.6,0,.9-.04,7.55-1.91,9.42-9.35,9.37-.7,0-1.39,0-2.6,0,0-3.06,0-6.02,0-8.97,0-2.81.1-5.62-.04-8.42-.09-1.8.65-2.34,2.54-2.14Z"/>
    <path class="cls-7" d="M221.26,279.57c-10.72,0-21.15.12-31.57-.05-6.18-.1-12.3-.71-18.08-3.37-10.44-4.79-17-12.77-19.4-23.89-1-4.63-1.25-9.49-1.25-14.25-.08-54.62-.06-109.24-.05-163.86,0-6.25.92-12.41,3.7-18,2.73-5.49,6.75-10.04,11.93-13.54,6.54-4.41,13.88-5.94,21.53-5.95,56.02-.07,112.05-.08,168.07,0,10.5.02,20.18,2.85,27.66,10.73,5.59,5.88,9.24,12.89,9.39,21.13.36,20.62.58,41.24.63,61.86.09,37.18.1,74.36-.02,111.55-.03,10.5-2.87,20.17-10.76,27.65-5.81,5.5-12.73,9.21-20.85,9.33-26.43.38-52.86.53-79.3.65-20.44.09-40.89.02-61.64.02M160.52,265.58c.76,2.38,2.15,4.07,5.07,4.5.16.12.28.28.38.89,1.3,1.02,2.49,2.24,3.92,3.03,7.45,4.09,15.65,4.34,23.85,4.35,22.74.04,45.49.09,68.23,0,33.04-.13,66.08-.27,99.11-.65,10.97-.12,19.29-5.67,25.56-14.43,4.88-6.82,5.91-14.78,5.93-22.79.12-42.58.11-85.16.03-127.74-.03-14.3-.29-28.61-.6-42.91-.24-11.23-5.61-19.7-14.6-26.09-6.76-4.81-14.61-5.84-22.51-5.85-55.01-.12-110.01-.07-165.02-.04-2.98,0-5.96.35-8.93.64-.43.04-.8.69-1.67,1.18-1.46.31-2.95.5-4.37.94-12.3,3.81-19.06,12.34-21.56,25-.42,2.99-1.21,5.99-1.21,8.98.13,57.27.36,114.53.52,171.8.02,5.47,1.74,10.4,4.28,15.08.65,1.2,1.96,2.05,3.22,3.2.16.12.28.28.34.91Z"/>
    <path class="cls-2" d="M153.82,65.48c2.04-12.53,8.8-21.07,21.1-24.87,1.42-.44,2.91-.63,4.88-.97,15.16,0,29.81.04,44.43.28-4.21,2.84-8.33,5.59-12.6,8.09-11.12,6.51-22.29,12.92-33.46,19.33-8.04,4.62-16.12,9.18-24.22,13.49-.07-5.31-.1-10.33-.13-15.36Z"/>
    <path class="cls-11" d="M224.26,39.72c-14.65-.04-29.29-.07-44.22-.14.12-.4.49-1.04.92-1.09,2.97-.29,5.96-.64,8.93-.64,55.01-.04,110.01-.08,165.02.04,7.9.02,15.75,1.05,22.51,5.85,8.99,6.39,14.36,14.86,14.6,26.09.3,14.3.57,28.6.6,42.91.08,42.58.09,85.16-.03,127.74-.02,8.01-1.05,15.96-5.93,22.79-6.27,8.77-14.59,14.31-25.56,14.43-33.04.37-66.07.51-99.11.65-22.74.09-45.49.04-68.23,0-8.2-.01-16.4-.27-23.85-4.35-1.43-.78-2.62-2.01-3.72-3.22,1.45.2,2.71.58,4.17,1,.87.41,1.54.79,2.33,1.34,3.49,1.67,6.79,3.49,10.9,2.26.46,0,.73,0,1.05.23,1.27.47,2.47.92,3.68.92,44.89.04,89.78.03,134.66.03,11.42,0,22.84.03,34.27-.05.99,0,1.97-.74,3.15-1.13.46,0,.73,0,1.15.17,3.98.46,7.5-.4,10.86-2.63.87-.41,1.54-.79,2.42-1.19,1.07-.81,1.94-1.59,2.96-2.44.45-.23.74-.39,1.25-.56,2.75-2.76,5.72-5.23,7.75-8.31,4.99-7.58,4.54-16.49,4.55-24.94.04-54.94-.2-109.88-.53-164.81-.08-13.01-6.87-22.25-18.24-27.99-2.97-1.5-6.66-1.56-10.27-2.3-1.06-.09-1.88-.16-2.9-.36-10.5-.19-20.79-.24-31.36-.33-11.52-.01-22.76.01-34.28,0-11.32-.01-22.36.01-33.68,0-12.12-.01-23.96.01-35.8.04Z"/>
    <path class="cls-11" d="M153.59,65.55c.26,4.96.29,9.99.32,15.5.01.9.02,1.32.02,2.03-.02,51.84-.07,103.38.05,154.93.01,4.62,1.14,9.24,1.59,13.99.54,2.06,1.24,3.99,1.96,6.11.41.87.79,1.54,1.17,2.44.4,1.48.8,2.73,1.2,3.98-1-1.01-2.31-1.86-2.96-3.06-2.53-4.69-4.26-9.62-4.28-15.08-.17-57.27-.4-114.53-.52-171.8,0-2.99.79-5.99,1.44-9.04Z"/>
    <path class="cls-6" d="M160.05,264.6c-.53-1.32-.93-2.57-1.12-4.02,3.82,3.3,7.43,6.8,11.02,10.32.17.17.13.56.19.85-1.26-.39-2.51-.77-3.99-1.18-.28-.22-.39-.37-.78-.74-1.76-1.73-3.31-3.21-4.86-4.7-.06-.19-.17-.35-.47-.54Z"/>
    <path class="cls-11" d="M160.52,265.36c1.54,1.26,3.09,2.75,4.72,4.41-2.57-.12-3.96-1.81-4.72-4.41Z"/>
    <path class="cls-2" d="M153.95,82.79c0-.42-.02-.84.01-1.46,8.1-4.79,16.17-9.36,24.21-13.98,11.17-6.42,22.35-12.83,33.46-19.33,4.27-2.5,8.38-5.25,12.6-8.09,11.87-.23,23.71-.26,35.8-.04-3.21,2.51-6.57,4.95-10.14,7.02-17.4,10.09-34.88,20.06-52.29,30.15-2.26,1.31-4.28,3.04-6.7,4.61-10.16.05-20.05-.01-29.93.1-2.35.03-4.69.66-7.03,1.02Z"/>
    <path class="cls-2" d="M359.59,40.15c.82.07,1.63.14,2.85.36,2.54,1.01,4.67,1.87,6.86,2.82.15.22.28.27.61.36.65.39,1.14.65,1.72,1.07.79.8,1.48,1.45,1.98,2.13-3.45,1.97-6.68,3.93-9.95,5.83-13.47,7.82-26.94,15.63-40.42,23.43-12.27,7.1-24.54,14.2-36.82,21.29-12.45,7.19-24.92,14.34-37.37,21.53-12.19,7.04-24.35,14.12-36.56,21.13-5.01,2.88-10.11,5.6-15.21,8.11-.01-4.1.01-7.92.26-11.75,1.41-.5,2.66-.87,3.77-1.51,13.89-8,27.79-15.99,41.62-24.1,2.75-1.61,5.22-3.7,8.09-5.6,4.15-.08,8.03,0,11.89-.2,3.88-.21,5.44-1.81,5.89-5.67.24-2.06.33-4.14.71-6.23,1.58-.64,3-1.17,4.29-1.92,8.2-4.75,16.34-9.6,24.55-14.33,18.84-10.86,37.73-21.65,56.54-32.57,1.78-1.03,3.15-2.76,4.72-4.17Z"/>
    <path class="cls-2" d="M359.38,40.01c-1.35,1.54-2.73,3.27-4.51,4.3-18.81,10.92-37.7,21.7-56.54,32.57-8.21,4.73-16.35,9.58-24.55,14.33-1.29.75-2.71,1.27-4.35,1.64-.28-3.8-.28-7.35-.28-11.23-3.49,0-6.74,0-9.97-.2.68-.77,1.26-1.46,1.99-1.89,5.87-3.39,11.79-6.71,17.66-10.09,13.9-8.02,27.81-16.02,41.65-24.14,2.75-1.61,5.22-3.7,7.82-5.57,10.29.05,20.58.1,31.08.29Z"/>
    <path class="cls-2" d="M328.02,39.68c-2.32,1.91-4.79,4-7.54,5.61-13.84,8.12-27.75,16.12-41.65,24.14-5.87,3.39-11.79,6.7-17.66,10.09-.73.42-1.31,1.12-2.27,1.93-11.35.22-22.39.19-33.4-.04.99-1.03,1.86-2.02,2.94-2.65,21-12.15,42.03-24.24,63.02-36.4,1.02-.59,1.72-1.75,2.57-2.65,11.24-.03,22.48-.06,34-.04Z"/>
    <path class="cls-2" d="M293.74,39.68c-.57.94-1.27,2.1-2.29,2.69-20.99,12.16-42.02,24.26-63.02,36.4-1.08.62-1.94,1.62-3.21,2.69-11.55.22-22.79.19-34.03.16,2.13-1.53,4.16-3.26,6.42-4.57,17.41-10.08,34.88-20.05,52.29-30.15,3.57-2.07,6.93-4.51,10.42-6.98,11.07-.23,22.11-.26,33.42-.25Z"/>
    <path class="cls-4" d="M373.8,46.85c-.69-.65-1.39-1.29-2.07-2.27.56-.27,1.2-.37,1.64-.12,10.47,6.16,16.15,15.46,16.19,27.48.18,57.46.15,114.91-.02,172.37-.02,5.91-1.19,11.89-5.09,16.86-1.94,2.47-3.76,5.04-5.63,7.57-.29.16-.59.32-1.25.56-1.23.87-2.09,1.66-2.96,2.45-.67.38-1.34.76-2.34,1.02-3.85.79-7.37,1.7-10.89,2.61-.26,0-.53,0-1.27-.01-58.83,0-117.19,0-175.54,0-.26,0-.53,0-1.15-.17-2.58-.66-4.81-1.16-7.04-1.61-1.27-.26-2.55-.43-3.82-.64-.67-.38-1.34-.76-2.21-1.17-.26-.32-.22-.71-.39-.88-3.59-3.53-7.2-7.03-11.02-10.55-.59-.69-.97-1.36-1.23-2.33.22-.65.33-.99.61-1.24,1.87,2,3.57,3.89,5.26,6.02.44.88.78,1.61,1.31,2.17,6.33,6.63,14.38,9.15,23.24,9.16,51.1.07,102.2.06,153.31.01,6.89,0,13.78-.27,20.66-.6,6.33-.3,11.72-3.08,16.37-7.19,7.23-6.37,9.93-14.79,9.95-24.11.06-55.71.02-111.42.04-167.13,0-7.66-1.45-14.95-6.18-21.1-1.84-2.39-4.71-3.98-7.27-6.02-.5-.43-.84-.78-1.18-1.13Z"/>
    <path class="cls-6" d="M379.02,268.72c1.67-2.51,3.49-5.07,5.43-7.55,3.89-4.97,5.07-10.95,5.09-16.86.17-57.46.2-114.91.02-172.37-.04-12.02-5.72-21.32-16.19-27.48-.43-.26-1.08-.15-1.73-.04-.59-.09-1.08-.35-1.79-.82-.34-.3-.46-.36-.6-.38-2.13-.86-4.27-1.71-6.56-2.7,3.2.58,6.89.64,9.86,2.14,11.37,5.74,18.16,14.97,18.24,27.99.33,54.94.57,109.88.53,164.81,0,8.45.44,17.37-4.55,24.94-2.03,3.08-5,5.55-7.75,8.31Z"/>
    <path class="cls-6" d="M184.62,275.61c58.29-.24,116.64-.25,175.28-.24-.7.4-1.68,1.13-2.67,1.14-11.42.08-22.84.05-34.27.05-44.89,0-89.78,0-134.66-.03-1.21,0-2.41-.45-3.68-.92Z"/>
    <path class="cls-6" d="M172.67,273.12c1.15.04,2.43.21,3.7.47,2.24.45,4.46.95,6.85,1.61-3.75,1.41-7.05-.42-10.54-2.08Z"/>
    <path class="cls-6" d="M361.53,275.55c3.36-1.08,6.88-1.99,10.53-2.75-3.03,2.35-6.55,3.21-10.53,2.75Z"/>
    <path class="cls-6" d="M374.81,271.73c.65-.77,1.52-1.56,2.59-2.36-.65.77-1.52,1.55-2.59,2.36Z"/>
    <path class="cls-9" d="M163.56,262.56c-1.69-1.9-3.39-3.8-5.28-6-.98-1.77-1.76-3.23-2.54-4.69-.61-4.62-1.74-9.24-1.75-13.86-.12-51.55-.07-103.09-.05-154.93,2.36-.65,4.7-1.28,7.05-1.31,9.88-.12,19.77-.06,29.93-.1,11.52-.01,22.76.01,34.28,0,11.32-.01,22.36.01,33.68,0,3.54-.04,6.8-.04,10.28-.04,0,3.88,0,7.43.06,11.25-.1,2.35-.18,4.43-.42,6.49-.45,3.87-2,5.47-5.89,5.67-3.86.21-7.74.12-12.17.16-18.15,0-35.74,0-53.42,0v31.26c-.03,3.82-.06,7.65-.08,12.02,0,2.78,0,5,0,7.19,3.5,0,6.55,0,9.88.05,13.98.06,27.68.02,41.38.13,2.02.02,2.97-.62,3.78-2.43,5.36-11.91,13.65-21.32,24.8-28.11,8.38-5.11,17.61-7.92,27.51-9.54,6.51-.5,12.74-1.17,18.99-1.41,4.57-.18,9.17.19,14.02.37,2.13.26,4.02.37,5.87.69,6.16,1.08,12.45,1.85,17.24,6.87,2.04,3.15,2.57,6.41,1.35,9.66-1.14,3.06-2.8,5.93-4.21,8.89-.73,1.53-1.59,1.79-3.31,1.16-8.65-3.19-17.6-4.4-26.83-3.71-15.19,1.13-26.66,7.94-33.38,21.86-5,10.34-6.82,21.45-7.41,33.1.14,9.51.34,18.75.51,28.24,1.4,6.7,2.83,13.14,4.27,19.81,1.97,5.02,4.4,9.49,9.03,12.6,4.75,3.44,10.08,4.97,15.58,5.04,7.21.09,14.42-.61,21.89-.93,4.89-.9,9.55-1.75,14.15-2.84,1.9-.45,3.16-.25,4.24,1.51,2.28,3.71,4.01,7.55,3.66,12.17-.04.14-.1.41-.32.43-.66.03-1.1.05-1.81.06-33.77-.03-67.25-.05-100.76-.27-2.58-4.54-5.13-8.88-7.7-13.44-1.1-3.59-2.18-6.96-3.26-10.57-.81-4.49-1.63-8.74-2.41-13.24-.41-4.89-.84-9.54-1.21-14.46-.07-5.31-.19-10.34-.23-15.63.39-5.7.69-11.14,1.07-16.8.26-1.4.43-2.56.63-3.95-7.01,0-13.77,0-20.82-.05-8.81-.05-17.34-.05-26.08-.05,0,5.42,0,10.56-.04,15.99-.01,4.7.01,9.13,0,13.83-.01,5.51.01,10.73,0,16.24-.01,5.3.02,10.33,0,15.64-.01,5.3.01,10.33,0,15.63-.38,3.98,1.15,8.11-2.74,11.11-2.89.06-5.51.09-8.4.08-4.5-.43-8.73-.82-13.15-1.3-3.26-1.9-6.34-3.71-9.41-5.52Z"/>
    <path class="cls-6" d="M155.58,252c.94,1.33,1.72,2.79,2.52,4.46-.08.56-.18.9-.44,1.35-.85-1.82-1.54-3.75-2.08-5.81Z"/>
    <path class="cls-2" d="M206.82,155.66h-9.61c0-2.19,0-4.41.04-6.91,5.1-3.07,10.2-5.79,15.21-8.66,12.21-7.01,24.37-14.09,36.56-21.13,12.45-7.19,24.92-14.34,37.37-21.53,12.28-7.08,24.55-14.18,36.82-21.29,13.48-7.8,26.95-15.61,40.42-23.43,3.27-1.9,6.51-3.87,9.95-5.83.54.32.88.67,1.47,1.28,1.68,2.23,3.1,4.19,4.41,6.35-.92.79-1.67,1.46-2.53,1.95-13.49,7.77-26.99,15.52-40.48,23.28-13.5,7.76-27,15.49-40.48,23.28-13.47,7.79-26.9,15.66-40.38,23.44-14.95,8.63-29.95,17.18-44.88,25.83-1.46.84-2.6,2.22-3.9,3.35Z"/>
    <path class="cls-2" d="M197.52,136.44c-.22-10.29-.22-20.59-.22-31.25,17.68,0,35.27,0,53.14.04-2.32,1.91-4.79,3.99-7.54,5.6-13.83,8.11-27.72,16.1-41.62,24.1-1.1.64-2.36,1.01-3.77,1.51Z"/>
    <path class="cls-4" d="M369.3,43.32c.09-.07.21-.01.38.16-.1.11-.22.07-.38-.16Z"/>
    <path class="cls-5" d="M379.59,54.32c-1.42-1.96-2.85-3.92-4.36-6.07,2.31,1.77,5.19,3.36,7.02,5.75,4.73,6.15,6.19,13.44,6.18,21.1-.02,55.71.02,111.42-.04,167.13-.01,9.32-2.72,17.74-9.95,24.11-4.65,4.1-10.04,6.88-16.37,7.19-6.88.33-13.78.59-20.66.6-51.1.05-102.2.06-153.31-.01-8.86-.01-16.91-2.53-23.24-9.16-.53-.56-.88-1.29-1.31-2.17,3.07,1.58,6.15,3.39,9.44,5.5,4.47,3.35,9.49,3.97,14.4,3.98,56.7.12,113.39.11,170.09.02,6.25-.01,12.23-1.68,17.44-5.4,8.26-5.9,11.6-14.4,11.63-24.08.14-56.5.1-112.99-.01-169.49,0-3.62-.92-7.31-1.89-10.83-.54-1.95-2.09-3.62-3.3-5.59-.67-.98-1.21-1.78-1.76-2.59Z"/>
    <path class="cls-2" d="M287.44,221.24c-.2-9.24-.41-18.47-.32-27.98,3.73-2.03,7.24-3.64,10.59-5.55,12.48-7.14,24.91-14.37,37.36-21.57,12.36-7.15,24.69-14.35,37.09-21.43,3.7-2.11,7.57-3.9,11.4-5.56.01,9.51-.01,18.75-.25,28.01-5.96,3.22-11.74,6.36-17.44,9.62-11.16,6.38-22.29,12.82-33.42,19.24-11.14,6.42-22.24,12.9-33.41,19.25-3.78,2.15-7.73,3.99-11.6,5.98Z"/>
    <path class="cls-2" d="M383.52,138.85c-3.79,1.94-7.67,3.73-11.37,5.84-12.4,7.08-24.73,14.28-37.09,21.43-12.45,7.2-24.87,14.43-37.36,21.57-3.35,1.91-6.86,3.53-10.52,5.28.3-11.37,2.13-22.49,7.12-32.83,6.72-13.92,18.19-20.73,33.38-21.86,9.23-.69,18.18.52,26.83,3.71,1.72.63,2.58.37,3.31-1.16,1.41-2.96,3.07-5.83,4.21-8.89,1.22-3.26.69-6.51-1.15-9.75,1.17-.88,2.2-1.46,3.24-2.04,6.46-3.6,12.93-7.19,19.43-10.5.01,9.92-.01,19.55-.04,29.19Z"/>
    <path class="cls-2" d="M379.48,54.52c.66.6,1.2,1.41,1.85,2.61.81,4.25,1.51,8.11,1.99,11.97-6.32,3.37-12.45,6.67-18.5,10.13-12.3,7.04-24.54,14.18-36.81,21.27-7.09,4.09-14.23,8.09-21.27,12.27-1.04.62-1.64,1.99-2.44,3.01-9.63,1.61-18.86,4.43-27.24,9.53-11.15,6.79-19.44,16.19-24.8,28.11-.81,1.8-1.76,2.44-3.78,2.43-13.7-.11-27.4-.07-41.38-.13,1.01-1.18,2.16-2.56,3.62-3.4,14.93-8.66,29.93-17.2,44.88-25.83,13.48-7.78,26.91-15.65,40.38-23.44,13.48-7.79,26.99-15.52,40.48-23.28,13.5-7.76,27-15.51,40.48-23.28.86-.49,1.61-1.16,2.53-1.95Z"/>
    <path class="cls-2" d="M287.4,221.49c3.9-2.24,7.85-4.08,11.63-6.23,11.17-6.35,22.28-12.83,33.41-19.25,11.14-6.42,22.26-12.87,33.42-19.24,5.71-3.26,11.49-6.4,17.48-9.34.22,7.28.2,14.31-.04,21.37-2.75,1.41-5.31,2.75-7.81,4.2-10.63,6.14-21.23,12.33-31.85,18.47-12.7,7.34-25.4,14.68-38.13,21.97-4.58,2.62-9.23,5.11-13.85,7.66-1.43-6.44-2.87-12.89-4.27-19.59Z"/>
    <path class="cls-2" d="M337.91,257.98c-7.21.36-14.43,1.06-21.63.97-5.5-.07-10.83-1.61-15.39-5.13,9.55-5.81,19.01-11.39,28.5-16.88,12.52-7.25,25.06-14.47,37.63-21.64,5.45-3.11,10.99-6.06,16.53-8.8.01,8.31-.01,16.34-.24,24.4-14.95,8.47-29.69,16.91-44.4,25.4-.49.28-.67,1.12-.99,1.69Z"/>
    <path class="cls-2" d="M383.52,206.2c-5.5,3.02-11.04,5.97-16.49,9.08-12.57,7.17-25.11,14.39-37.63,21.64-9.5,5.5-18.95,11.08-28.61,16.71-4.71-2.85-7.14-7.32-9.11-12.34,4.62-2.77,9.27-5.25,13.85-7.87,12.73-7.29,25.43-14.63,38.13-21.97,10.63-6.14,21.22-12.33,31.85-18.47,2.5-1.45,5.07-2.78,7.85-3.92.22,5.88.2,11.51.17,17.13Z"/>
    <path class="cls-2" d="M304.57,115.76c.53-1.01,1.13-2.38,2.17-3,7.04-4.18,14.18-8.18,21.27-12.27,12.27-7.08,24.51-14.22,36.81-21.27,6.04-3.46,12.18-6.76,18.54-9.89.3,1.08.33,1.91.33,3.02-.08,5.31-.12,10.34-.38,15.38-1.68.62-3.22,1.09-4.59,1.88-12.68,7.3-25.35,14.62-37.98,22.02-1.29.76-2.29,2.01-3.42,3.03-4.59-.13-9.18-.5-13.76-.32-6.25.25-12.48.91-18.99,1.41Z"/>
    <path class="cls-1" d="M383.72,72.08c-.04-.83-.08-1.66-.15-2.74-.74-4.11-1.44-7.97-2.12-12.04,1.11,1.58,2.66,3.25,3.2,5.2.98,3.52,1.89,7.21,1.89,10.83.11,56.5.15,112.99.01,169.49-.02,9.68-3.36,18.18-11.63,24.08-5.21,3.72-11.19,5.39-17.44,5.4-56.7.09-113.39.1-170.09-.02-4.9-.01-9.93-.63-14.21-3.89,4.19.18,8.42.57,12.98,1.23,1.55.49,2.77.9,3.98.9,41.87.03,83.74.03,125.61.03,13.22,0,26.44.03,39.67-.05.98,0,1.96-.74,2.93-1.14.44-.02.88-.03,1.69.12.96.27,1.54.49,2.12.45,8.08-.47,17.93-7.58,20.14-15.41,1.47-5.2,2.35-10.75,2.4-16.15.25-24.85.11-49.71.11-74.56,0-29.46.01-58.93-.05-88.39,0-1.11-.68-2.22-1.05-3.33Z"/>
    <path class="cls-2" d="M243.49,185.15c-.3,5.44-.59,10.87-1.18,16.58-10.96,6.32-21.61,12.4-32.32,18.37-4.15,2.32-8.45,4.37-12.69,6.54-.03-5.23-.05-10.45.18-15.96.83-.46,1.45-.53,1.95-.82,10.81-6.24,21.59-12.55,32.43-18.72,3.78-2.16,7.74-4,11.62-5.99Z"/>
    <path class="cls-2" d="M337.58,114.72c.87-1.08,1.87-2.33,3.16-3.09,12.63-7.39,25.29-14.72,37.98-22.02,1.36-.78,2.91-1.26,4.62-1.6.23,7.31.21,14.34.18,21.37-6.47,3.59-12.93,7.19-19.4,10.78-1.04.58-2.07,1.16-3.31,1.82-4.92-4.72-11.22-5.5-17.37-6.58-1.85-.32-3.74-.43-5.87-.69Z"/>
    <path class="cls-2" d="M338.17,258.02c.07-.62.24-1.45.74-1.73,14.71-8.49,29.46-16.93,44.44-25.12.25,3.74.3,7.23.26,10.72-.16,12.95-10.78,25.13-23.35,26.83.31-4.49-1.42-8.32-3.7-12.03-1.08-1.75-2.34-1.96-4.24-1.51-4.6,1.09-9.25,1.93-14.15,2.84Z"/>
    <path class="cls-2" d="M197.26,226.93c4.27-2.45,8.57-4.5,12.73-6.82,10.71-5.97,21.36-12.06,32.22-18.11.32,5.02.45,10.05.3,15.35-.85.4-1.51.38-1.99.66-10.71,6.19-21.37,12.46-32.1,18.59-3.61,2.06-7.4,3.79-11.11,5.67-.03-5.03-.06-10.05-.04-15.36Z"/>
    <path class="cls-2" d="M194.8,269.28c3.62-2.97,2.09-7.1,2.67-11.11,11.42-6.71,22.56-13.17,33.77-19.51,4.14-2.34,8.45-4.4,12.67-6.59.81,4.25,1.63,8.51,2.24,13.02-.57.42-.95.54-1.3.74-12.18,7.03-24.36,14.05-36.5,21.13-.86.5-1.42,1.5-2.41,2.31-3.9.02-7.53,0-11.15,0Z"/>
    <path class="cls-2" d="M243.94,231.82c-4.26,2.44-8.56,4.5-12.7,6.84-11.21,6.34-22.35,12.8-33.73,19.23-.23-5-.26-10.02-.25-15.33,3.75-2.16,7.54-3.89,11.15-5.95,10.74-6.14,21.4-12.41,32.1-18.59.48-.28,1.14-.26,1.93-.39.65,4.65,1.08,9.29,1.49,14.19Z"/>
    <path class="cls-2" d="M243.57,184.93c-3.96,2.22-7.92,4.06-11.71,6.22-10.85,6.18-21.62,12.49-32.43,18.72-.5.29-1.13.36-1.91.54-.25-4.42-.27-8.84-.04-13.55.82-.46,1.44-.53,1.94-.82,7.05-4.06,14.1-8.11,21.09-12.26,1.19-.7,2.11-1.85,3.15-2.8h20.54c-.2,1.38-.37,2.55-.63,3.95Z"/>
    <path class="cls-2" d="M206.23,269.24c.7-.77,1.27-1.77,2.13-2.27,12.14-7.09,24.32-14.11,36.5-21.13.34-.2.73-.32,1.3-.51,1.29,3.34,2.37,6.71,3.36,10.5-4.96,3.22-9.88,5.96-14.69,8.87-2.22,1.34-4.24,3.02-6.63,4.58-7.51.01-14.74-.01-21.97-.04Z"/>
    <path class="cls-2" d="M360.22,268.86c12.62-1.84,23.24-14.02,23.39-26.97.04-3.49,0-6.98-.05-10.75-.01-8.31.01-16.34,0-24.66-.01-5.91.01-11.53,0-17.44-.01-7.31.01-14.34,0-21.65-.01-9.51.01-18.75,0-28.26-.01-9.92.01-19.55,0-29.47-.01-7.31.01-14.34,0-21.65,0-5.31.04-10.34.13-15.65.41.83,1.09,1.94,1.09,3.05.06,29.46.05,58.93.05,88.39,0,24.85.14,49.71-.11,74.56-.05,5.4-.93,10.94-2.4,16.15-2.21,7.83-12.06,14.95-20.14,15.41-.57.03-1.16-.18-1.9-.47-.16-.18-.1-.46-.05-.6Z"/>
    <path class="cls-2" d="M223.38,180.93c-.77,1-1.69,2.15-2.87,2.85-6.99,4.15-14.04,8.2-21.09,12.26-.5.29-1.12.36-1.9.54-.22-5.14-.22-10.29-.22-15.71,8.74,0,17.27,0,26.08.05Z"/>
    <path class="cls-8" d="M205.95,269.28c7.51-.01,14.74.01,22.53.04,9.99-.01,19.43-.03,28.87-.04,33.49.02,66.97.04,100.74.07-.7.41-1.67,1.15-2.65,1.15-13.22.08-26.44.05-39.67.05-41.87,0-83.74,0-125.61-.03-1.22,0-2.43-.41-3.7-.87,2.56-.26,5.18-.29,8.07-.35,3.9-.01,7.53,0,11.43-.02Z"/>
    <path class="cls-2" d="M257.32,269.07c-9.41.22-18.85.23-28.56.21,1.83-1.56,3.85-3.24,6.07-4.58,4.81-2.91,9.73-5.65,14.7-8.65,2.66,4.14,5.21,8.48,7.79,13.03Z"/>
  </g>
</svg>