<?xml version="1.0" encoding="UTF-8"?>
<svg id="Vrstva_2" xmlns="http://www.w3.org/2000/svg" viewBox="0 0 249 37.9">
  <defs>
    <style>
      .cls-1 {
        fill: #94c9e1;
      }
    </style>
  </defs>
  <g id="Vrstva_1-2" data-name="Vrstva_1">
    <path class="cls-1" d="M39.08,0h-17.46l-1.32,4.98h16.45c.55,0,1,.45,1,1s-.45,1-1,1h-16.98l-.57,2.14h21.56c.55,0,1,.45,1,1s-.45,1-1,1h-22.09l-.57,2.14h20.97c.55,0,1,.45,1,1s-.45,1-1,1h-21.5l-.57,2.14h17.4c.55,0,1,.45,1,1s-.45,1-1,1h-17.93l-1.65,6.23c-1.64,6.19,3.03,12.25,9.43,12.25h4.79l3.24-12.25c9.64,0,18.98-5.74,20.85-12.83,1.87-7.08-4.42-12.83-14.06-12.83Z"/>
    <path class="cls-1" d="M12.64,4.98c-.55,0-1,.45-1,1s.45,1,1,1h7.13l.53-2.01h-7.66Z"/>
    <path class="cls-1" d="M15.68,13.27c-.55,0-1,.45-1,1s.45,1,1,1h1.9l.53-2.01h-2.43Z"/>
    <path class="cls-1" d="M5.96,17.41c-.55,0-1,.45-1,1s.45,1,1,1h10.52l.53-2.01H5.96Z"/>
    <path class="cls-1" d="M1,9.12c-.55,0-1,.45-1,1s.45,1,1,1h17.67l.53-2.01H1Z"/>
    <path class="cls-1" d="M12.82,15.31c.57,0,1.04-.46,1.04-1.04s-.46-1.04-1.04-1.04-1.04.46-1.04,1.04.46,1.04,1.04,1.04Z"/>
    <path class="cls-1" d="M3.07,19.45c.57,0,1.04-.46,1.04-1.04s-.46-1.04-1.04-1.04-1.04.46-1.04,1.04.46,1.04,1.04,1.04Z"/>
    <path class="cls-1" d="M9.92,13.27h-5.42c-.55,0-1,.45-1,1h0c0,.55.45,1,1,1h5.42c.55,0,1-.45,1-1h0c0-.55-.45-1-1-1Z"/>
    <path class="cls-1" d="M9.78,4.98h-4.08c-.55,0-1,.45-1,1h0c0,.55.45,1,1,1h4.08c.55,0,1-.45,1-1h0c0-.55-.45-1-1-1Z"/>
    <path class="cls-1" d="M113.54,9.44h-3.99c-.67,0-1.09.37-1.26,1.01l-.26,1.15c-.58-1.38-1.94-2.16-4.43-2.16h-3.43c-5.4,0-7.78,3.2-9,8.16l-1.13,4.51c-1.26,5.1,1.02,8.27,6.42,8.27h1.94c2.5,0,4.2-.78,5.48-2.16l-.26,1.08c-.17.71.22,1.08,1,1.08h3.99c.67,0,1.09-.37,1.26-1.01l4.64-18.7c.18-.74-.18-1.23-.96-1.23ZM106.65,17l-1.43,5.81c-.35,1.42-1.33,1.75-2.04,1.75h-5.89c-.71,0-1.52-.34-1.17-1.75l1.47-5.81c.35-1.42,1.29-1.75,2.04-1.75h5.89c.75,0,1.48.34,1.13,1.75Z"/>
    <path class="cls-1" d="M134.65,21.96h-3.99c-.67,0-1.05.34-1.26,1.01-.38,1.19-.76,1.6-1.99,1.6h-5.89c-1.08,0-1.51-.34-1.17-1.75l1.47-5.81c.35-1.42.92-1.75,2.04-1.75h5.89c1.12,0,1.37.26,1.22,1.27-.1.82.22,1.27.96,1.27h3.99c.67,0,1.13-.34,1.27-1.04.84-4.81-1.46-7.3-6.6-7.3h-6.18c-5.77,0-7.78,3.2-9,8.16l-1.13,4.51c-1.26,5.1.64,8.27,6.42,8.27h6.18c4.81,0,7.18-2.01,8.71-7.15.21-.78-.14-1.27-.92-1.27Z"/>
    <path class="cls-1" d="M176.03,9.44h-3.99c-.67,0-1.09.37-1.26,1.01l-6.11,24.62h0s-.35,1.42-.35,1.42c0,.02,0,.04,0,.06l-.24,1-.04.16h1.26c4.34,0,5.58-2.39,6.02-4.12l5.69-22.92c.18-.74-.18-1.23-.96-1.23Z"/>
    <path class="cls-1" d="M172.82,7.32h3.99c.67,0,1.09-.37,1.26-1.01l.74-2.98c.18-.75-.18-1.23-.96-1.23h-3.99c-.67,0-1.09.37-1.26,1.01l-.74,2.98c-.18.75.18,1.23.96,1.23Z"/>
    <path class="cls-1" d="M200.51,9.44h-3.99c-.67,0-1.09.37-1.26,1.01l-.26,1.15c-.59-1.38-1.94-2.16-4.43-2.16h-3.43c-5.4,0-7.79,3.2-9,8.16l-1.13,4.51c-1.26,5.1,1.01,8.27,6.42,8.27h1.94c2.5,0,4.2-.78,5.48-2.16l-.26,1.08c-.17.71.22,1.08,1.01,1.08h3.99c.67,0,1.09-.37,1.26-1.01l4.64-18.7c.17-.74-.18-1.23-.96-1.23ZM193.62,17l-1.43,5.81c-.35,1.42-1.33,1.75-2.04,1.75h-5.89c-.71,0-1.52-.34-1.17-1.75l1.47-5.81c.35-1.42,1.29-1.75,2.04-1.75h5.88c.75,0,1.48.34,1.13,1.75Z"/>
    <path class="cls-1" d="M221.62,21.96h-3.99c-.67,0-1.06.34-1.26,1.01-.38,1.19-.76,1.6-1.99,1.6h-5.89c-1.08,0-1.51-.34-1.17-1.75l1.47-5.81c.35-1.42.92-1.75,2.04-1.75h5.88c1.12,0,1.37.26,1.22,1.27-.1.82.22,1.27.96,1.27h3.99c.67,0,1.13-.34,1.27-1.04.84-4.81-1.46-7.3-6.6-7.3h-6.18c-5.77,0-7.79,3.2-9,8.16l-1.13,4.51c-1.26,5.1.64,8.27,6.42,8.27h6.18c4.81,0,7.18-2.01,8.71-7.15.21-.78-.14-1.27-.92-1.27Z"/>
    <path class="cls-1" d="M82.32,9.44h-1.94c-2.46,0-4.2.78-5.48,2.16l.26-1.08c.17-.71-.22-1.08-1.01-1.08h-3.99c-.67,0-1.09.37-1.26,1.01l-5.47,22.06c-.15.61-.19,1.26,0,1.86.44,1.45,1.78,2.54,3.43,2.53l1.73-.02s.01,0,.02-.01l.35-1.37,1.79-7.27c.62,1.38,1.97,2.16,4.43,2.16h3.43c5.77,0,7.75-3.17,9.01-8.27l1.13-4.51c1.22-4.95-.65-8.16-6.42-8.16ZM82.65,17l-1.47,5.81c-.35,1.42-.95,1.75-2.04,1.75h-5.89c-1.08,0-1.48-.33-1.13-1.75l1.47-5.81c.35-1.42.88-1.75,2-1.75h5.89c1.12,0,1.52.34,1.17,1.75Z"/>
    <path class="cls-1" d="M161.09,9.44h-5.07c-.56,0-1.01.19-1.4.63l-6.59,7.34h-2.53l2.64-10.61c.38-1.97-1.45-3.85-3.57-3.84l-1.75.02-1.13,4.43h0l-5.39,21.73c-.18.75.18,1.23.96,1.23h4.02c.67,0,1.09-.37,1.26-1.01l1.69-6.82h3.35l2.96,7c.24.6.64.82,1.27.82h4.47c.86,0,1.21-.52.87-1.3l-4.19-9.2,8.66-9.05c.7-.75.42-1.38-.55-1.38Z"/>
    <path class="cls-1" d="M248.06,9.44h-5.07c-.56,0-1.01.19-1.4.63l-6.59,7.34h-2.53l2.64-10.61c.51-1.99-1.45-3.85-3.57-3.84l-1.75.02-1.13,4.43h0l-5.39,21.73c-.17.75.18,1.23.96,1.23h4.02c.67,0,1.09-.37,1.26-1.01l1.69-6.82h3.35l2.96,7c.24.6.64.82,1.27.82h4.47c.86,0,1.21-.52.87-1.3l-4.19-9.2,8.66-9.05c.7-.75.42-1.38-.55-1.38Z"/>
  </g>
</svg>