<?xml version="1.0" encoding="UTF-8"?>
<svg id="Vrstva_2" xmlns="http://www.w3.org/2000/svg" viewBox="0 0 642.11 117.7">
  <defs>
    <style>
      .cls-1 {
        fill: #94c9e1;
      }
    </style>
  </defs>
  <g id="Vrstva_1-2" data-name="Vrstva_1">
    <g>
      <path class="cls-1" d="M.41,1.7c-1.2,2.1.4,17.4,2.8,27,6.7,26.9,22.4,50.1,45.9,67.7,6,4.6,14.1,9.4,17.1,10.3,1.3.4,6.5,2.2,11.5,4,15.8,5.9,22.2,7,39.9,7,18.4-.1,26.8-1.6,40.5-7.4,11.3-4.8,20.7-13.9,26.3-25.4,8.8-18.1,8.7-35.1-.3-53.5-7.7-15.6-23.2-27.7-38.5-30.2-14.9-2.4-29.6-.7-40.3,4.6-12.6,6.4-22,16.9-27.8,31.2l-2.2,5.5,2,5.1c2.5,6.5,9.8,17.4,14.5,21.7,4.2,3.8,13.1,9.9,14.4,9.9.5,0-.5-2.8-2.3-6.3-2.9-5.5-3.3-7.1-3.3-14.2.1-10.4,2.8-16.7,10-23.3,13-11.9,29.7-12,42.6-.4,7.6,6.9,10.3,12.8,10.3,23.2.1,7.3-.3,9.3-2.7,14.2-2.9,5.9-8.1,10.9-15.7,14.9-4,2.1-5.7,2.4-15,2.3-11.4-.2-15.5-1.2-27.9-7.1s-25.2-20.4-30.4-34.3c-4.1-11.4-4.7-28.3-1.2-39.9.9-2.9,1.4-5.9,1.1-6.7C70.91-.6,1.61-.5.41,1.7Z"/>
      <path class="cls-1" d="M192.51,1.7c-.3.8.2,3.8,1.2,6.7,1.8,5.2,1.9,6.8,1.7,33.8,0,3.6,0,11.4.1,17.5,0,8.1-.5,12.4-1.8,16.5-2.8,8.4-8.1,18-13.2,23.8-2.5,2.8-4.1,5.2-3.5,5.2.5,0,4.7-2.8,9.3-6.3,26.3-19.9,39.7-50.7,36-83.4-.7-5.9-1.9-11.6-2.7-13-1.5-2.2-2-2.3-14.1-2.3-10,0-12.6.3-13,1.5Z"/>
      <path class="cls-1" d="M256.11,48.1v41.1h16v-32h10.8c12.3,0,17-1.1,22.8-5.1,6.3-4.3,8.9-10.4,8.9-20.5,0-7.2-.3-8.6-3-13-1.9-3-4.9-6-7.9-7.9l-4.9-3-21.4-.3-21.3-.3v41ZM294.81,23.7c3.2,2.3,4.7,7.7,3.3,12-1.7,5.2-5.1,6.5-16.5,6.5h-9.5v-20h10.3c7.5,0,10.8.4,12.4,1.5Z"/>
      <path class="cls-1" d="M437.11,21.7v8.5h-6v14h6v17c0,24.4,1.5,27.2,15.1,27.9l7.9.3v-15.1l-3.2-.3-3.3-.3-.3-14.7-.3-14.7,3.3-.3,3.3-.3.3-6.8.3-6.7h-7.1V13.2h-16v8.5Z"/>
      <path class="cls-1" d="M338.81,30.2c-4.8,1.2-10.9,4.4-12.7,6.5-1.2,1.4-.8,2.2,3.3,6.2l4.7,4.5,3.7-1.8c2.2-1,6.1-1.8,9.2-1.8,4.6,0,5.7.3,7.7,2.7,1.3,1.6,2.4,3.9,2.4,5.1,0,2.3-.2,2.4-11.8,2.8-12.9.4-16.6,1.7-20.5,7-2.2,3-3.3,10.8-2.3,16.3,1.1,5.5,5.7,10.1,11.7,11.5,6.2,1.5,14.2.6,18.7-2.1,4.1-2.4,4.2-2.4,4.2.1,0,1.8.7,2,7,2h7v-21.5c0-23-.5-26.2-5.3-31.3-5.3-5.7-17.7-8.5-27-6.2ZM357.11,69.4c0,1.8-.4,3.8-.8,4.5-2.1,3.3-14.1,4.5-18,1.7-1.2-.8-2.2-2.6-2.2-3.9,0-4,3.5-5.5,12.7-5.5h8.3v3.2Z"/>
      <path class="cls-1" d="M411.11,30.3c-1.4.6-3.7,2.2-5.2,3.6l-2.8,2.7v-6.4h-17v59h17v-19.3c0-21.4.3-22.7,6.4-24.7,2.3-.7,4.1-.7,6,0,1.5.5,3.1,1,3.5,1,.7,0,9.1-11.4,9.1-12.5,0-.3-1.9-1.5-4.2-2.5-4.7-2.1-8.9-2.4-12.8-.9Z"/>
      <path class="cls-1" d="M497.11,30.8c-1.9.8-4.5,2.7-5.7,4.2l-2.3,2.7v-7.5h-16v59h16v-19.4c0-19.1,0-19.5,2.4-22.3,3.2-3.7,9.3-3.9,13-.4l2.6,2.4v39.7h16v-20.3c0-23.3-1.1-29-6.4-34.3s-13-6.6-19.6-3.8Z"/>
      <path class="cls-1" d="M554.61,30.1c-7.1,1.8-12.6,6.4-16,13.1-2.3,4.5-3.2,21.1-1.6,28.5,1.6,6.9,7.3,13.6,13.9,16.2,7.4,2.9,18.3,2.4,25.4-1,8.8-4.3,9.1-5.1,3.6-10.3l-4.7-4.4-4.3,2c-9.1,4.1-19.8.7-19.8-6.4,0-1.4,2.3-1.6,17.5-1.6h17.5v-6.3c0-12.8-4.8-23.1-12.8-27.5-4.6-2.6-13.6-3.7-18.7-2.3ZM568.61,46.7c1.4,1.3,2.5,3.1,2.5,3.9s.3,2.1.6,3c.5,1.4-.8,1.6-10.5,1.6h-11.1l.6-2.8c.3-1.5,1.9-3.9,3.5-5.5,4-3.7,10.8-3.8,14.4-.2Z"/>
      <path class="cls-1" d="M624.31,30.9c-1.8.9-4.2,2.7-5.2,4.1l-2,2.5v-7.3h-17v59h17v-18.5c0-14.5.3-19.2,1.5-21.5,1.9-3.7,6.8-5.4,11.5-4,1.9.6,3.5,1,3.6,1,.4,0,8.4-11.9,8.4-12.5,0-1.1-8.5-4.5-11.5-4.5-1.6,0-4.5.8-6.3,1.7Z"/>
    </g>
  </g>
</svg>