<svg xmlns="http://www.w3.org/2000/svg" width="246" height="116" fill="none" viewBox="0 0 246 116">
  <mask id="a" width="246" height="116" x="0" y="0" maskUnits="userSpaceOnUse" style="mask-type:luminance">
    <path fill="#fff" d="M0 0h246v116H0V0Z"/>
  </mask>
  <g mask="url(#a)">
    <path fill="#94C9E1" d="M150.704 77.17c-5.087 0-6.507-1.27-7.927-4.788l-2.686-6.598-1.807 10.79c-1.136.44-4.261.673-6.146.673-4.777 0-7.85-1.19-7.85-6.883 0-2.018.362-4.27.749-6.598l2.53-15.654c2.402-14.981 8.238-20.985 17.068-20.985 5.242 0 7.489 2.096 7.489 5.848 0 1.268-.309 2.407-.749 3.519-2.247.516-5.086 1.657-6.584 2.329l-1.73 9.522c2.685-2.925 5.318-4.347 9.941-4.347 5.991 0 8.445 3.286 8.445 7.633 0 5.691-3.435 9.133-8.24 10.505 0 0 1.344 1.5 2.248 2.406.515.517 1.188.984 2.015.984.903 0 2.091-.156 3.15-.44 1.574.75 2.478 2.845 2.478 4.942.026 4.812-5.888 7.141-12.394 7.141Zm-5.553-22.046c-1.341 0-2.478.595-3.433 1.578l-.827 4.269c.594.079 1.188.156 1.653.156 2.478 0 4.648-1.501 4.648-3.907 0-1.269-.62-2.096-2.041-2.096Zm-36.821 21.98c-3.822 0-5.604-1.579-5.604-4.347 0-1.268.31-2.691.594-3.83-1.73 5.926-7.566 8.255-13.402 8.255-4.699 0-8.005-2.174-8.005-7.349 0-1.577.233-3.906.595-5.848l1.858-9.522-2.685.517c-.827-.749-1.498-2.483-1.498-3.984 0-5.175 4.261-7.114 13.453-7.114 6.224 0 6.895 2.845 6.147 6.96L97.69 62.537c-.387 2.173.284 2.406 1.73 2.406.904 0 2.091-.596 2.479-1.113l2.247-13.636c.749-4.787 1.574-6.287 8.005-6.287 2.763 0 5.99.906 7.41 2.329l-2.84 16.352c-.077.75-.31 1.501-.31 1.94 0 .596.233.984 1.136.984.827 0 1.343-.154 1.937-.388 1.937.828 2.918 2.692 2.918 4.787 0 4.942-6.43 7.193-14.073 7.193ZM75.793 55.822c-.67-.362-2.4-.595-4.777-.595-4.493 0-7.41 2.483-7.41 6.365 0 3.286 1.627 4.425 4.931 4.425 2.092 0 4.493-.518 6.275-1.423 2.014.516 3.28 2.614 3.28 4.709 0 4.942-5.991 7.944-15.106 7.944-8.755 0-15.106-4.943-15.106-13.714 0-12.213 8.366-19.717 20.425-19.717 8.831 0 10.406 3.597 10.406 6.158 0 2.381-1.188 4.943-2.918 5.848Zm129.576 4.735c-.515-.284-1.859-.465-3.744-.465-3.512 0-5.785 1.94-5.785 4.968 0 2.562 1.292 3.44 3.849 3.44 1.628 0 3.512-.413 4.906-1.111 1.575.413 2.556 2.043 2.556 3.674 0 3.855-4.674 6.184-11.775 6.184-6.843 0-11.775-3.856-11.775-10.687 0-9.522 6.533-15.37 15.932-15.37 6.895 0 8.109 2.795 8.109 4.787 0 1.89-.93 3.882-2.273 4.58ZM33.29 47.103c0 1.656.516 1.813 5.991 4.58 5.449 2.77 7.179 5.408 7.179 10.428 0 8.539-5.526 15.136-19.599 15.136-10.484 0-15.623-2.483-15.623-7.788 0-3.312 2.014-5.329 5.32-6.365 2.478 2.251 6.222 3.312 9.062 3.312 2.996 0 4.494-.75 4.494-2.096 0-1.422-1.187-2.174-6.352-4.71-6.198-3.078-8.083-6.157-8.083-12.057 0-8.254 6.353-15.214 18.928-15.214 11 0 15.57 3.157 15.57 8.538 0 3.313-1.42 5.486-4.648 6.52-1.498-1.034-5.01-2.535-8.082-2.535-2.738-.078-4.157.75-4.157 2.251Zm134.766 26.185c.516 1.423 1.059 2.64 1.524 3.338.232.363.439.621.593.674.44.155 2.195-.622 4.133-1.864 2.84-1.785 5.886-4.295 6.506-7.452.258-1.294.104-2.69-.62-4.191-1.136-2.355-3.512-3.83-5.991-4.011-1.213-.103-2.452.13-3.614.673-1.498.725-2.453 1.734-3.047 2.897-1.447 2.899-.595 6.754.516 9.937Zm55.286-5.17c2.66.518 5.087 1.165 7.618 1.113.464-.026.955-.026 1.42-.026 1.343-.025 1.859.389 2.143 1.76.49 2.406-.646 4.554-2.944 5.563-1.446.646-2.97.776-4.571.698-2.556-.13-4.932-1.061-7.385-1.656-2.247-.517-4.57-.828-6.868-1.164-.852-.13-1.446-.62-1.808-1.734-.542-1.785-.233-3.415.697-4.993.981-1.682 2.505-2.795 3.925-4.011 1.827-1.569 3.66-3.13 5.5-4.684.104-.077.181-.206.336-.388-1.084 0-2.04-.026-3.02 0a87.455 87.455 0 0 0-3.668.26c-.645.077-1.033-.182-1.343-.7-1.343-2.225-1.058-6.365 2.867-6.96 1.652-.258 3.356-.258 5.009-.233 3.641.078 7.256.31 10.898.389 1.264.025 1.729.258 2.219 1.656.982 2.716.104 5.615-2.323 7.736-1.343 1.165-2.711 2.303-4.079 3.468-1.498 1.241-2.971 2.509-4.623 3.906Z"/>
  </g>
</svg>
