<svg xmlns="http://www.w3.org/2000/svg" width="20" height="30" fill="none" viewBox="0 0 20 30">
  <path fill="#fff" d="M9.153 28.605 1.413 15.2A10.219 10.219 0 0 1 1.34 4.957 9.912 9.912 0 0 1 10.159.003a10.058 10.058 0 0 1 8.478 4.986 9.909 9.909 0 0 1 0 10.03l-7.844 13.586a.95.95 0 0 1-1.64 0ZM9.978 2.84a7.11 7.11 0 0 0-6.149 3.461 7.374 7.374 0 0 0 .021 7.461l5.306 9.192a.954.954 0 0 0 1.65 0l5.307-9.192a7.375 7.375 0 0 0 .02-7.46A7.11 7.11 0 0 0 9.979 2.83v.01Z"/>
  <path fill="#fff" d="M9.978 13.327a3.322 3.322 0 1 0 0-6.643 3.322 3.322 0 0 0 0 6.643Z"/>
</svg>
