<svg xmlns="http://www.w3.org/2000/svg" width="21" height="20" fill="none" viewBox="0 0 21 20">
  <g clip-path="url(#a)">
    <path fill="#fff" d="m20.628 4.618-7.015 7.015a4.173 4.173 0 0 1-5.893 0L.705 4.618C.693 4.75.667 4.87.667 5v10a4.172 4.172 0 0 0 4.166 4.167H16.5A4.172 4.172 0 0 0 20.667 15V5c0-.13-.027-.25-.039-.382Z"/>
    <path fill="#fff" d="m12.435 10.455 7.612-7.612A4.155 4.155 0 0 0 16.5.833H4.833a4.155 4.155 0 0 0-3.546 2.01l7.611 7.612a2.506 2.506 0 0 0 3.537 0Z"/>
  </g>
  <defs>
    <clipPath id="a">
      <path fill="#fff" d="M.667 0h20v20h-20z"/>
    </clipPath>
  </defs>
</svg>
