<svg xmlns="http://www.w3.org/2000/svg" width="30" height="30" fill="none" viewBox="0 0 30 30">
  <g clip-path="url(#a)">
    <path fill="#fff" d="M30 15.091c0 7.487-5.492 13.693-12.663 14.82V19.455h3.487l.663-4.325h-4.15v-2.806c0-1.184.58-2.336 2.438-2.336h1.886V6.306s-1.712-.292-3.349-.292c-3.417 0-5.65 2.071-5.65 5.82v3.296H8.864v4.325h3.798V29.91C5.494 28.78 0 22.576 0 15.09c0-8.283 6.716-15 15-15 8.284 0 15 6.715 15 15Z"/>
  </g>
  <defs>
    <clipPath id="a">
      <path fill="#fff" d="M0 0h30v30H0z"/>
    </clipPath>
  </defs>
</svg>
