<svg xmlns="http://www.w3.org/2000/svg" width="30" height="26" fill="none" viewBox="0 0 30 26">
  <path fill="#fff" d="M28.753 24.98h.283l-.544-.823c.333 0 .51-.21.512-.47 0-.01 0-.02-.002-.03 0-.353-.212-.522-.648-.522h-.705v1.845h.265v-.804h.326l.513.804Zm-.532-1.012h-.307v-.624h.39c.201 0 .431.032.431.296 0 .302-.231.328-.514.328Zm-6.607-2.127h-3.759v-5.886c0-1.404-.025-3.21-1.955-3.21-1.957 0-2.258 1.529-2.258 3.109v5.987H9.886V9.736h3.609v1.654h.05a3.956 3.956 0 0 1 3.56-1.955c3.81 0 4.511 2.506 4.511 5.765l-.001 6.641ZM5.644 8.081a2.18 2.18 0 1 1-.001-4.361 2.18 2.18 0 0 1 0 4.361Zm1.878 13.76H3.76V9.736h3.763v12.105ZM23.488.23H1.872A1.852 1.852 0 0 0 0 2.057v21.706a1.852 1.852 0 0 0 1.871 1.83h21.617a1.856 1.856 0 0 0 1.878-1.83V2.055A1.856 1.856 0 0 0 23.488.227"/>
  <path fill="#fff" d="M28.254 22.314a1.729 1.729 0 1 0 .034 0h-.034Zm.04 3.26c-.838.013-1.568-.653-1.582-1.49a1.516 1.516 0 1 1 3.033-.05v.025a1.484 1.484 0 0 1-1.451 1.515h-.039.039Z"/>
</svg>
