<svg xmlns="http://www.w3.org/2000/svg" width="198" height="65" fill="none" viewBox="0 0 198 65">
  <g clip-path="url(#a)">
    <path fill="#463863" d="m40 34.06-2.74 4.84 1.45 2.55a12.38 12.38 0 0 1-.27 12.73 12 12 0 0 1-20.76-.72A12.76 12.76 0 0 1 18 41.21l1.31-2.31-2.73-4.82-2.81 5a17.35 17.35 0 0 0 2.83 20.83H4.74V4.83h11.82a17.47 17.47 0 0 0-3 4A17.73 17.73 0 0 0 13.91 26L27 49.15a1.4 1.4 0 0 0 2.45 0L42.65 26a17.73 17.73 0 0 0 .27-17.23A16.6 16.6 0 0 0 28.27 0H0v64.74h28.27c.175 0 .35-.02.52-.06a16.59 16.59 0 0 0 14-8.54 17.22 17.22 0 0 0 0-17.1L40 34.06ZM28.27 4.83a11.89 11.89 0 0 1 10.32 5.94 12.77 12.77 0 0 1 0 12.74l-9.07 16a1.4 1.4 0 0 1-2.45 0l-9.07-16a12.77 12.77 0 0 1 0-12.74 11.91 11.91 0 0 1 10.27-5.94Z"/>
    <path fill="#463863" d="M28.49 23.24c3.397 0 6.15-2.803 6.15-6.26 0-3.458-2.753-6.26-6.15-6.26-3.396 0-6.15 2.802-6.15 6.26 0 3.457 2.753 6.26 6.15 6.26Zm44.45 14.64a6.09 6.09 0 0 1-.73 3.12 5.87 5.87 0 0 1-1.94 2 8.618 8.618 0 0 1-2.75 1.1 15.056 15.056 0 0 1-3.16.33h-9V21.94h9c.897.003 1.791.093 2.67.27a7.75 7.75 0 0 1 2.48.92A4.95 4.95 0 0 1 72 27.72a4.64 4.64 0 0 1-1 3.09 5.65 5.65 0 0 1-2.67 1.76v.07a6 6 0 0 1 1.8.59 5.1 5.1 0 0 1 2.81 4.65Zm-6.16-9.43a1.81 1.81 0 0 0-.88-1.67 5.09 5.09 0 0 0-2.59-.53h-2.66v4.64h2.92a3.94 3.94 0 0 0 2.36-.62 2.12 2.12 0 0 0 .85-1.82Zm.73 8.92a2 2 0 0 0-1.05-1.94 6.14 6.14 0 0 0-2.8-.54h-3V40h3a8.6 8.6 0 0 0 1.34-.07c.431-.07.85-.204 1.24-.4a2.44 2.44 0 0 0 .91-.81 2.42 2.42 0 0 0 .36-1.35Zm8.86 7.05V40l8.76-7.92a8.465 8.465 0 0 0 1.34-1.62A3.5 3.5 0 0 0 87 28.6a2.61 2.61 0 0 0-.76-2 2.762 2.762 0 0 0-2-.75 2.81 2.81 0 0 0-2.18.94 4.29 4.29 0 0 0-1 2.46l-5.11-.7a7.997 7.997 0 0 1 .94-3.05 7.729 7.729 0 0 1 1.89-2.28 7.998 7.998 0 0 1 2.62-1.44 9.731 9.731 0 0 1 3.13-.5c1.014 0 2.023.139 3 .41A8.003 8.003 0 0 1 90.09 23a6.29 6.29 0 0 1 2.51 5.21 7.005 7.005 0 0 1-.32 2.18 6.93 6.93 0 0 1-.88 1.79 9.815 9.815 0 0 1-1.27 1.54c-.47.48-1 1-1.47 1.42l-5.21 4.63h9.18v4.64l-16.26.01Zm38.2-6.54a6 6 0 0 1-.73 3.09 5.75 5.75 0 0 1-1.93 2 8.704 8.704 0 0 1-2.75 1.1 15.058 15.058 0 0 1-3.16.33h-9V21.94h9a13.74 13.74 0 0 1 2.67.27 7.7 7.7 0 0 1 2.47.92 4.955 4.955 0 0 1 2.51 4.59 4.69 4.69 0 0 1-1 3.09 5.65 5.65 0 0 1-2.65 1.76v.07c.624.1 1.229.299 1.79.59a5.126 5.126 0 0 1 1.46 1.09 5 5 0 0 1 1.35 3.56h-.03Zm-6.16-9.43a1.804 1.804 0 0 0-.87-1.67 5.11 5.11 0 0 0-2.59-.53h-2.67v4.64h2.92a4 4 0 0 0 2.37-.62 2.127 2.127 0 0 0 .84-1.82Zm.73 8.92a2.006 2.006 0 0 0-1-1.94 6.101 6.101 0 0 0-2.79-.54h-3V40h3c.442-.003.883-.04 1.32-.11a4.393 4.393 0 0 0 1.24-.4 2.26 2.26 0 0 0 1.25-2.16l-.02.04Zm26.33-.92a9.872 9.872 0 0 1-.51 3.17 8.077 8.077 0 0 1-1.48 2.69 7.33 7.33 0 0 1-2.36 1.86 7.08 7.08 0 0 1-3.18.69 6.67 6.67 0 0 1-2.76-.58 4.852 4.852 0 0 1-2-1.61h-.07V52h-5.21V28.6h5v1.94h.09a6.551 6.551 0 0 1 2-1.67 6.218 6.218 0 0 1 3-.71 7.07 7.07 0 0 1 3.12.67 6.816 6.816 0 0 1 2.36 1.81 8.104 8.104 0 0 1 1.5 2.65 9.778 9.778 0 0 1 .5 3.16Zm-5.05 0a4.686 4.686 0 0 0-.24-1.49 3.835 3.835 0 0 0-.7-1.29 3.531 3.531 0 0 0-1.16-.91 3.58 3.58 0 0 0-1.62-.34 3.5 3.5 0 0 0-1.58.34c-.457.224-.863.54-1.19.93a4.152 4.152 0 0 0-.77 1.3 4.246 4.246 0 0 0 0 3c.177.479.438.923.77 1.31a3.76 3.76 0 0 0 1.19.92 3.499 3.499 0 0 0 1.58.35 3.58 3.58 0 0 0 1.62-.35 3.43 3.43 0 0 0 1.16-.92 4.17 4.17 0 0 0 .7-1.32c.16-.494.241-1.01.24-1.53Zm25.09 0a8.504 8.504 0 0 1-.7 3.51 7.993 7.993 0 0 1-1.9 2.67 8.748 8.748 0 0 1-2.8 1.69 9.72 9.72 0 0 1-6.78 0 8.376 8.376 0 0 1-2.79-1.69 7.8 7.8 0 0 1-1.89-2.63 8.504 8.504 0 0 1-.7-3.51c-.021-1.2.218-2.39.7-3.49a7.683 7.683 0 0 1 1.89-2.64 8.134 8.134 0 0 1 2.79-1.65 10.37 10.37 0 0 1 6.78 0 8.463 8.463 0 0 1 2.8 1.65 7.84 7.84 0 0 1 1.9 2.64 8.34 8.34 0 0 1 .7 3.45Zm-5 0a4.446 4.446 0 0 0-.25-1.49 4.09 4.09 0 0 0-.73-1.29 3.838 3.838 0 0 0-1.18-.91 3.58 3.58 0 0 0-1.62-.34 3.64 3.64 0 0 0-1.62.34 3.755 3.755 0 0 0-1.16.91c-.311.383-.548.82-.7 1.29a4.94 4.94 0 0 0 0 3 4 4 0 0 0 .72 1.32c.322.39.72.71 1.17.94.506.24 1.06.36 1.62.35a3.58 3.58 0 0 0 1.62-.35 3.633 3.633 0 0 0 1.18-.94c.318-.391.559-.839.71-1.32.154-.488.229-.998.22-1.51h.02Zm13.96-12.9a2.65 2.65 0 0 1-.24 1.13 2.845 2.845 0 0 1-1.59 1.51 3.072 3.072 0 0 1-1.16.22 2.923 2.923 0 0 1-2.13-.84 2.769 2.769 0 0 1-.63-3.11c.143-.345.357-.655.63-.91.295-.26.634-.466 1-.61a2.899 2.899 0 0 1 1.18-.24c.397-.002.791.073 1.16.22a2.846 2.846 0 0 1 1.59 1.51c.144.355.208.738.19 1.12Zm-5.59 20.87V28.6h5.2v15.82h-5.2Zm19.72 0v-8.64a7.4 7.4 0 0 0-.11-1.27 3.594 3.594 0 0 0-.37-1.06 1.91 1.91 0 0 0-.71-.73 2.29 2.29 0 0 0-1.16-.27 2.65 2.65 0 0 0-1.23.27 2.592 2.592 0 0 0-.87.74 3.382 3.382 0 0 0-.52 1.1 4.573 4.573 0 0 0-.18 1.29v8.57h-5.24V28.6h5v2.2h.07a4.921 4.921 0 0 1 1.87-1.8 6.847 6.847 0 0 1 1.35-.57 5.3 5.3 0 0 1 1.56-.22 5.863 5.863 0 0 1 2.7.57 4.994 4.994 0 0 1 1.79 1.48 5.73 5.73 0 0 1 1 2.08c.198.767.299 1.557.3 2.35v9.78l-5.25-.05Zm14.83-11.94v6.06a2.687 2.687 0 0 0 .43 1.67 1.84 1.84 0 0 0 1.54.56c.272 0 .543-.023.81-.07.245-.028.484-.092.71-.19l.07 3.81c-.447.15-.905.264-1.37.34a10.2 10.2 0 0 1-1.65.14 7.657 7.657 0 0 1-2.67-.4 4 4 0 0 1-1.73-1.14 4.575 4.575 0 0 1-.94-1.79 8.662 8.662 0 0 1-.28-2.3v-6.69h-2.54V28.6h2.51v-4.16h5.11v4.16h3.72v3.88h-3.72Z"/>
  </g>
  <defs>
    <clipPath id="a">
      <path fill="#fff" d="M0 0h197.15v64.74H0z"/>
    </clipPath>
  </defs>
</svg>
