<svg xmlns="http://www.w3.org/2000/svg" width="21" height="20" fill="none" viewBox="0 0 21 20">
  <g clip-path="url(#a)">
    <path fill="#fff" d="M19.833 9.167A.833.833 0 0 1 19 8.333a6.674 6.674 0 0 0-6.667-6.666.833.833 0 0 1 0-1.667 8.343 8.343 0 0 1 8.334 8.333.834.834 0 0 1-.834.834Zm-2.5-.834a5 5 0 0 0-5-5 .833.833 0 0 0 0 1.667 3.333 3.333 0 0 1 3.334 3.333.833.833 0 1 0 1.666 0Zm1.82 10.137.758-.874a2.583 2.583 0 0 0 0-3.648 467.702 467.702 0 0 0-2.031-1.568 2.583 2.583 0 0 0-3.567.005l-1.589 1.338a10.655 10.655 0 0 1-5.777-5.786l1.334-1.584a2.583 2.583 0 0 0 .006-3.568S6.742.783 6.717.757A2.568 2.568 0 0 0 3.112.718l-.959.834C-3.508 8.12 8.683 20.218 15.468 20a5.128 5.128 0 0 0 3.684-1.53Z"/>
  </g>
  <defs>
    <clipPath id="a">
      <path fill="#fff" d="M.667 0h20v20h-20z"/>
    </clipPath>
  </defs>
</svg>
