<?xml version="1.0" encoding="UTF-8"?>
<svg id="Vrstva_1" xmlns="http://www.w3.org/2000/svg" viewBox="0 0 588.94 831.22">
  <defs>
    <style>
      .cls-1 {
        fill: none;
      }

      .cls-2 {
        fill: #1e1e1c;
      }
    </style>
  </defs>
  <g id="Layer_2">
    <g id="Layer_1-2">
      <path class="cls-2" d="M522.64,437.71l-35.77,62.12,18.94,32.74c29.71,50.77,28.34,113.94-3.54,163.38-46.65,73.41-143.98,95.1-217.39,48.45-22.58-14.35-41.13-34.21-53.9-57.71-26.18-49.5-24.74-109.05,3.79-157.24l16.83-29.71h0l-35.18-62.04h-.42l-36.78,63.64c-39.65,67.8-39.65,151.72,0,219.53,10.28,17.79,22.97,34.08,37.71,48.4H62.04V62.21h154.38c-15.4,15.02-28.53,32.2-38.97,51.01-37.34,69.24-35.71,152.97,4.29,220.7l171.8,297.39c5.16,8.83,16.5,11.81,25.33,6.66,2.76-1.61,5.05-3.9,6.66-6.66l171.72-297.98c40.1-67.95,41.47-151.99,3.62-221.21C522.33,42.54,448.89-.46,369.36,0H0v831.22h369.36c2.3-.02,4.58-.3,6.82-.84,121.14-3.69,216.35-104.88,212.66-226.02-1.1-36.26-11.18-71.69-29.33-103.1l-36.87-63.55ZM369.36,62.04c55.21-.23,106.43,28.74,134.68,76.18,29.52,50.6,29.32,113.22-.51,163.63l-118.18,205.13c-5.06,8.83-16.33,11.89-25.16,6.83-2.84-1.63-5.2-3.98-6.83-6.83l-118.43-205.13c-29.8-50.43-29.96-113.05-.42-163.63,28.26-47.5,79.57-76.49,134.85-76.18Z"/>
      <line class="cls-1" x1="256.56" y1="507.07" x2="252.1" y2="499.41"/>
      <circle class="cls-2" cx="372.3" cy="217.93" r="80.3"/>
    </g>
  </g>
</svg>