<svg xmlns="http://www.w3.org/2000/svg" width="30" height="30" fill="none" viewBox="0 0 30 30">
  <g clip-path="url(#a)">
    <path fill="#fff" d="M29.372 7.733a3.77 3.77 0 0 0-2.652-2.67c-2.339-.63-11.72-.63-11.72-.63s-9.381 0-11.721.63a3.769 3.769 0 0 0-2.651 2.67C0 10.088 0 15 0 15s0 4.913.627 7.268a3.77 3.77 0 0 0 2.653 2.67c2.339.63 11.72.63 11.72.63s9.381 0 11.721-.63a3.773 3.773 0 0 0 2.653-2.67C30 19.913 30 15 30 15s0-4.912-.628-7.267ZM11.932 19.46v-8.92L19.773 15l-7.84 4.461Z"/>
  </g>
  <defs>
    <clipPath id="a">
      <path fill="#fff" d="M0 0h30v30H0z"/>
    </clipPath>
  </defs>
</svg>
